<svg width="1528" height="875" xmlns="http://www.w3.org/2000/svg" xmlns:xlink="http://www.w3.org/1999/xlink" overflow="hidden"><defs><clipPath id="clip0"><rect x="129" y="84" width="1528" height="875"/></clipPath><clipPath id="clip1"><rect x="146" y="115" width="67" height="68"/></clipPath><clipPath id="clip2"><rect x="146" y="115" width="67" height="68"/></clipPath><clipPath id="clip3"><rect x="146" y="115" width="67" height="68"/></clipPath><clipPath id="clip4"><rect x="145" y="322" width="68" height="67"/></clipPath><clipPath id="clip5"><rect x="145" y="322" width="68" height="67"/></clipPath><clipPath id="clip6"><rect x="145" y="322" width="68" height="67"/></clipPath><clipPath id="clip7"><rect x="146" y="529" width="67" height="67"/></clipPath><clipPath id="clip8"><rect x="146" y="529" width="67" height="67"/></clipPath><clipPath id="clip9"><rect x="146" y="529" width="67" height="67"/></clipPath></defs><g clip-path="url(#clip0)" transform="translate(-129 -84)"><path d="M1060 104.055 1060 264.946C1060 273.26 1053.26 280 1044.95 280L222 280 222 89.0001 1044.95 89.0001C1053.26 89.0001 1060 95.7402 1060 104.055Z" fill="#FFFFFF" fill-rule="evenodd"/><path d="M222.5 90.1966 222.5 280.5 149.625 280.5C141.045 280.467 136.687 276.19 135.499 268.725L135.758 104.835C136.798 96.1221 141.19 90.7786 149.625 89.4995L222.5 90.1966Z" stroke="#003399" stroke-width="2.75507" stroke-miterlimit="8" fill="#003399" fill-rule="evenodd"/><g clip-path="url(#clip1)"><g clip-path="url(#clip2)"><g clip-path="url(#clip3)"><path d="M0-4.47308 0 0 2.23654 0" fill="#FFCC00" transform="matrix(0.949694 0.31318 -0.308574 0.963868 178.12 121.578)"/><path d="M0-4.47308 0 0 2.23654 0" fill="#FFCC00" transform="matrix(-0.949694 0.31318 0.308574 0.963868 180.88 121.578)"/><path d="M0-4.46667 0 0 2.23334 0" fill="#FFCC00" transform="matrix(0 1.01493 -1 0 179.281 120.399)"/><path d="M0-4.48937 0 0 2.24468 0" fill="#FFCC00" transform="matrix(-0.584813 -0.81694 -0.804927 0.593542 180.134 123.064)"/><path d="M0-4.47308 0 0 2.23654 0" fill="#FFCC00" transform="matrix(-0.949694 0.31318 -0.308574 -0.963868 180.745 121.156)"/><path d="M0-4.48937 0 0 2.24468 0" fill="#FFCC00" transform="matrix(0.584814 -0.81694 -0.804926 -0.593542 178.512 122.803)"/><path d="M0-4.48937 0 0 2.24468 0" fill="#FFCC00" transform="matrix(-0.584814 -0.81694 0.804926 -0.593542 180.488 122.803)"/><path d="M0-4.47308 0 0 2.23654 0" fill="#FFCC00" transform="matrix(0.949694 0.31318 0.308574 -0.963868 178.255 121.156)"/><path d="M0-4.48937 0 0 2.24468 0" fill="#FFCC00" transform="matrix(0.584813 -0.81694 0.804927 0.593542 178.866 123.064)"/><path d="M0-4.46667 0 0 2.23334 0" fill="#FFCC00" transform="matrix(0 1.01493 1 0 179.719 120.399)"/><path d="M0-4.47308 0 0 2.23654 0" fill="#FFCC00" transform="matrix(0.949694 0.31318 -0.308574 0.963868 191.52 125.222)"/><path d="M0-4.47308 0 0 2.23654 0" fill="#FFCC00" transform="matrix(-0.949694 0.31318 0.308574 0.963868 194.28 125.222)"/><path d="M0-4.46667 0 0 2.23334 0" fill="#FFCC00" transform="matrix(0 1.01493 -1 0 192.681 124.043)"/><path d="M0-4.48937 0 0 2.24468 0" fill="#FFCC00" transform="matrix(-0.584813 -0.81694 -0.804927 0.593542 193.534 126.708)"/><path d="M0-4.47308 0 0 2.23654 0" fill="#FFCC00" transform="matrix(-0.949694 0.31318 -0.308574 -0.963868 194.145 124.8)"/><path d="M0-4.48937 0 0 2.24468 0" fill="#FFCC00" transform="matrix(0.584814 -0.81694 -0.804926 -0.593542 191.912 126.447)"/><path d="M0-4.48937 0 0 2.24468 0" fill="#FFCC00" transform="matrix(-0.584814 -0.81694 0.804926 -0.593542 193.888 126.447)"/><path d="M0-4.47308 0 0 2.23654 0" fill="#FFCC00" transform="matrix(0.949694 0.31318 0.308574 -0.963868 191.655 124.8)"/><path d="M0-4.48937 0 0 2.24468 0" fill="#FFCC00" transform="matrix(0.584813 -0.81694 0.804927 0.593542 192.266 126.708)"/><path d="M0-4.46667 0 0 2.23334 0" fill="#FFCC00" transform="matrix(0 1.01493 1 0 193.119 124.043)"/><path d="M0-4.47308 0 0 2.23654 0" fill="#FFCC00" transform="matrix(0.949694 0.31318 -0.308574 0.963868 201.329 135.178)"/><path d="M0-4.47308 0 0 2.23654 0" fill="#FFCC00" transform="matrix(-0.949694 0.31318 0.308574 0.963868 204.09 135.178)"/><path d="M0-4.46667 0 0 2.23334 0" fill="#FFCC00" transform="matrix(0 1.01493 -1 0 202.491 133.999)"/><path d="M0-4.48937 0 0 2.24468 0" fill="#FFCC00" transform="matrix(-0.584813 -0.81694 -0.804927 0.593542 203.344 136.664)"/><path d="M0-4.47308 0 0 2.23654 0" fill="#FFCC00" transform="matrix(-0.949694 0.31318 -0.308574 -0.963868 203.955 134.756)"/><path d="M0-4.48937 0 0 2.24468 0" fill="#FFCC00" transform="matrix(0.584814 -0.81694 -0.804926 -0.593542 201.721 136.403)"/><path d="M0-4.48937 0 0 2.24468 0" fill="#FFCC00" transform="matrix(-0.584814 -0.81694 0.804926 -0.593542 203.698 136.403)"/><path d="M0-4.47308 0 0 2.23654 0" fill="#FFCC00" transform="matrix(0.949694 0.31318 0.308574 -0.963868 201.464 134.756)"/><path d="M0-4.48937 0 0 2.24468 0" fill="#FFCC00" transform="matrix(0.584813 -0.81694 0.804927 0.593542 202.075 136.664)"/><path d="M0-4.46667 0 0 2.23334 0" fill="#FFCC00" transform="matrix(0 1.01493 1 0 202.928 133.999)"/><path d="M0-4.47308 0 0 2.23654 0" fill="#FFCC00" transform="matrix(0.949694 0.31318 -0.308574 0.963868 204.92 148.778)"/><path d="M0-4.47308 0 0 2.23654 0" fill="#FFCC00" transform="matrix(-0.949694 0.31318 0.308574 0.963868 207.68 148.778)"/><path d="M0-4.46667 0 0 2.23334 0" fill="#FFCC00" transform="matrix(0 1.01493 -1 0 206.081 147.599)"/><path d="M0-4.48937 0 0 2.24468 0" fill="#FFCC00" transform="matrix(-0.584813 -0.81694 -0.804927 0.593542 206.934 150.264)"/><path d="M0-4.47308 0 0 2.23654 0" fill="#FFCC00" transform="matrix(-0.949694 0.31318 -0.308574 -0.963868 207.545 148.356)"/><path d="M0-4.48937 0 0 2.24468 0" fill="#FFCC00" transform="matrix(0.584814 -0.81694 -0.804926 -0.593542 205.312 150.003)"/><path d="M0-4.48937 0 0 2.24468 0" fill="#FFCC00" transform="matrix(-0.584814 -0.81694 0.804926 -0.593542 207.288 150.003)"/><path d="M0-4.47308 0 0 2.23654 0" fill="#FFCC00" transform="matrix(0.949694 0.31318 0.308574 -0.963868 205.055 148.356)"/><path d="M0-4.48937 0 0 2.24468 0" fill="#FFCC00" transform="matrix(0.584813 -0.81694 0.804927 0.593542 205.666 150.264)"/><path d="M0-4.46667 0 0 2.23334 0" fill="#FFCC00" transform="matrix(0 1.01493 1 0 206.519 147.599)"/><path d="M0-4.47308 0 0 2.23654 0" fill="#FFCC00" transform="matrix(0.949694 0.31318 -0.308574 0.963868 201.329 162.378)"/><path d="M0-4.47308 0 0 2.23654 0" fill="#FFCC00" transform="matrix(-0.949694 0.31318 0.308574 0.963868 204.09 162.378)"/><path d="M0-4.46667 0 0 2.23334 0" fill="#FFCC00" transform="matrix(0 1.01493 -1 0 202.491 161.199)"/><path d="M0-4.48937 0 0 2.24468 0" fill="#FFCC00" transform="matrix(-0.584813 -0.81694 -0.804927 0.593542 203.344 163.864)"/><path d="M0-4.47308 0 0 2.23654 0" fill="#FFCC00" transform="matrix(-0.949694 0.31318 -0.308574 -0.963868 203.955 161.956)"/><path d="M0-4.48937 0 0 2.24468 0" fill="#FFCC00" transform="matrix(0.584814 -0.81694 -0.804926 -0.593542 201.721 163.603)"/><path d="M0-4.48937 0 0 2.24468 0" fill="#FFCC00" transform="matrix(-0.584814 -0.81694 0.804926 -0.593542 203.698 163.603)"/><path d="M0-4.47308 0 0 2.23654 0" fill="#FFCC00" transform="matrix(0.949694 0.31318 0.308574 -0.963868 201.464 161.956)"/><path d="M0-4.48937 0 0 2.24468 0" fill="#FFCC00" transform="matrix(0.584813 -0.81694 0.804927 0.593542 202.075 163.864)"/><path d="M0-4.46667 0 0 2.23334 0" fill="#FFCC00" transform="matrix(0 1.01493 1 0 202.928 161.199)"/><path d="M0-4.47308 0 0 2.23654 0" fill="#FFCC00" transform="matrix(0.949694 0.31318 -0.308574 0.963868 191.52 172.334)"/><path d="M0-4.47308 0 0 2.23654 0" fill="#FFCC00" transform="matrix(-0.949694 0.31318 0.308574 0.963868 194.28 172.334)"/><path d="M0-4.46667 0 0 2.23334 0" fill="#FFCC00" transform="matrix(0 1.01493 -1 0 192.681 171.155)"/><path d="M0-4.48937 0 0 2.24468 0" fill="#FFCC00" transform="matrix(-0.584813 -0.81694 -0.804927 0.593542 193.534 173.82)"/><path d="M0-4.47308 0 0 2.23654 0" fill="#FFCC00" transform="matrix(-0.949694 0.31318 -0.308574 -0.963868 194.145 171.912)"/><path d="M0-4.48937 0 0 2.24468 0" fill="#FFCC00" transform="matrix(0.584814 -0.81694 -0.804926 -0.593542 191.912 173.559)"/><path d="M0-4.48937 0 0 2.24468 0" fill="#FFCC00" transform="matrix(-0.584814 -0.81694 0.804926 -0.593542 193.888 173.559)"/><path d="M0-4.47308 0 0 2.23654 0" fill="#FFCC00" transform="matrix(0.949694 0.31318 0.308574 -0.963868 191.655 171.912)"/><path d="M0-4.48937 0 0 2.24468 0" fill="#FFCC00" transform="matrix(0.584813 -0.81694 0.804927 0.593542 192.266 173.82)"/><path d="M0-4.46667 0 0 2.23334 0" fill="#FFCC00" transform="matrix(0 1.01493 1 0 193.119 171.155)"/><path d="M0-4.47308 0 0 2.23654 0" fill="#FFCC00" transform="matrix(0.949694 0.31318 -0.308574 0.963868 178.12 175.978)"/><path d="M0-4.47308 0 0 2.23654 0" fill="#FFCC00" transform="matrix(-0.949694 0.31318 0.308574 0.963868 180.88 175.978)"/><path d="M0-4.46667 0 0 2.23334 0" fill="#FFCC00" transform="matrix(3.10696e-16 1.01493 -1 2.48557e-16 179.281 174.799)"/><path d="M0-4.48937 0 0 2.24468 0" fill="#FFCC00" transform="matrix(-0.584813 -0.81694 -0.804927 0.593542 180.134 177.464)"/><path d="M0-4.47308 0 0 2.23654 0" fill="#FFCC00" transform="matrix(-0.949694 0.31318 -0.308574 -0.963868 180.745 175.556)"/><path d="M0-4.48937 0 0 2.24468 0" fill="#FFCC00" transform="matrix(0.584814 -0.81694 -0.804926 -0.593542 178.512 177.203)"/><path d="M0-4.48937 0 0 2.24468 0" fill="#FFCC00" transform="matrix(-0.584814 -0.81694 0.804926 -0.593542 180.488 177.203)"/><path d="M0-4.47308 0 0 2.23654 0" fill="#FFCC00" transform="matrix(0.949694 0.31318 0.308574 -0.963868 178.255 175.556)"/><path d="M0-4.48937 0 0 2.24468 0" fill="#FFCC00" transform="matrix(0.584813 -0.81694 0.804927 0.593542 178.866 177.464)"/><path d="M0-4.46667 0 0 2.23334 0" fill="#FFCC00" transform="matrix(2.48557e-16 1.01493 1 -2.48557e-16 179.719 174.799)"/><path d="M0-4.47308 0 0 2.23654 0" fill="#FFCC00" transform="matrix(0.949694 0.31318 -0.308574 0.963868 164.72 172.334)"/><path d="M0-4.47308 0 0 2.23654 0" fill="#FFCC00" transform="matrix(-0.949694 0.31318 0.308574 0.963868 167.48 172.334)"/><path d="M0-4.46667 0 0 2.23334 0" fill="#FFCC00" transform="matrix(0 1.01493 -1 0 165.881 171.155)"/><path d="M0-4.48937 0 0 2.24468 0" fill="#FFCC00" transform="matrix(-0.584813 -0.81694 -0.804927 0.593542 166.734 173.82)"/><path d="M0-4.47308 0 0 2.23654 0" fill="#FFCC00" transform="matrix(-0.949694 0.31318 -0.308574 -0.963868 167.345 171.912)"/><path d="M0-4.48937 0 0 2.24468 0" fill="#FFCC00" transform="matrix(0.584814 -0.81694 -0.804926 -0.593542 165.112 173.559)"/><path d="M0-4.48937 0 0 2.24468 0" fill="#FFCC00" transform="matrix(-0.584814 -0.81694 0.804926 -0.593542 167.088 173.559)"/><path d="M0-4.47308 0 0 2.23654 0" fill="#FFCC00" transform="matrix(0.949694 0.31318 0.308574 -0.963868 164.855 171.912)"/><path d="M0-4.48937 0 0 2.24468 0" fill="#FFCC00" transform="matrix(0.584813 -0.81694 0.804927 0.593542 165.466 173.82)"/><path d="M0-4.46667 0 0 2.23334 0" fill="#FFCC00" transform="matrix(0 1.01493 1 0 166.319 171.155)"/><path d="M0-4.47308 0 0 2.23654 0" fill="#FFCC00" transform="matrix(0.949694 0.31318 -0.308574 0.963868 154.91 162.378)"/><path d="M0-4.47308 0 0 2.23654 0" fill="#FFCC00" transform="matrix(-0.949694 0.31318 0.308574 0.963868 157.671 162.378)"/><path d="M0-4.46667 0 0 2.23334 0" fill="#FFCC00" transform="matrix(0 1.01493 -1 0 156.072 161.199)"/><path d="M0-4.48937 0 0 2.24468 0" fill="#FFCC00" transform="matrix(-0.584813 -0.81694 -0.804927 0.593542 156.925 163.864)"/><path d="M0-4.47308 0 0 2.23654 0" fill="#FFCC00" transform="matrix(-0.949694 0.31318 -0.308574 -0.963868 157.536 161.956)"/><path d="M0-4.48937 0 0 2.24468 0" fill="#FFCC00" transform="matrix(0.584814 -0.81694 -0.804926 -0.593542 155.302 163.603)"/><path d="M0-4.48937 0 0 2.24468 0" fill="#FFCC00" transform="matrix(-0.584814 -0.81694 0.804926 -0.593542 157.279 163.603)"/><path d="M0-4.47308 0 0 2.23654 0" fill="#FFCC00" transform="matrix(0.949694 0.31318 0.308574 -0.963868 155.045 161.956)"/><path d="M0-4.48937 0 0 2.24468 0" fill="#FFCC00" transform="matrix(0.584813 -0.81694 0.804927 0.593542 155.656 163.864)"/><path d="M0-4.46667 0 0 2.23334 0" fill="#FFCC00" transform="matrix(0 1.01493 1 0 156.509 161.199)"/><path d="M0-4.47308 0 0 2.23654 0" fill="#FFCC00" transform="matrix(0.949694 0.31318 -0.308574 0.963868 151.32 148.778)"/><path d="M0-4.47308 0 0 2.23654 0" fill="#FFCC00" transform="matrix(-0.949694 0.31318 0.308574 0.963868 154.08 148.778)"/><path d="M0-4.46667 0 0 2.23334 0" fill="#FFCC00" transform="matrix(0 1.01493 -1 0 152.481 147.599)"/><path d="M0-4.48937 0 0 2.24468 0" fill="#FFCC00" transform="matrix(-0.584813 -0.81694 -0.804927 0.593542 153.334 150.264)"/><path d="M0-4.47308 0 0 2.23654 0" fill="#FFCC00" transform="matrix(-0.949694 0.31318 -0.308574 -0.963868 153.945 148.356)"/><path d="M0-4.48937 0 0 2.24468 0" fill="#FFCC00" transform="matrix(0.584814 -0.81694 -0.804926 -0.593542 151.712 150.003)"/><path d="M0-4.48937 0 0 2.24468 0" fill="#FFCC00" transform="matrix(-0.584814 -0.81694 0.804926 -0.593542 153.688 150.003)"/><path d="M0-4.47308 0 0 2.23654 0" fill="#FFCC00" transform="matrix(0.949694 0.31318 0.308574 -0.963868 151.455 148.356)"/><path d="M0-4.48937 0 0 2.24468 0" fill="#FFCC00" transform="matrix(0.584813 -0.81694 0.804927 0.593542 152.066 150.264)"/><path d="M0-4.46667 0 0 2.23334 0" fill="#FFCC00" transform="matrix(0 1.01493 1 0 152.919 147.599)"/><path d="M0-4.47308 0 0 2.23654 0" fill="#FFCC00" transform="matrix(0.949694 0.31318 -0.308574 0.963868 154.91 135.178)"/><path d="M0-4.47308 0 0 2.23654 0" fill="#FFCC00" transform="matrix(-0.949694 0.31318 0.308574 0.963868 157.671 135.178)"/><path d="M0-4.46667 0 0 2.23334 0" fill="#FFCC00" transform="matrix(0 1.01493 -1 0 156.072 133.999)"/><path d="M0-4.48937 0 0 2.24468 0" fill="#FFCC00" transform="matrix(-0.584813 -0.81694 -0.804927 0.593542 156.925 136.664)"/><path d="M0-4.47308 0 0 2.23654 0" fill="#FFCC00" transform="matrix(-0.949694 0.31318 -0.308574 -0.963868 157.536 134.756)"/><path d="M0-4.48937 0 0 2.24468 0" fill="#FFCC00" transform="matrix(0.584814 -0.81694 -0.804926 -0.593542 155.302 136.403)"/><path d="M0-4.48937 0 0 2.24468 0" fill="#FFCC00" transform="matrix(-0.584814 -0.81694 0.804926 -0.593542 157.279 136.403)"/><path d="M0-4.47308 0 0 2.23654 0" fill="#FFCC00" transform="matrix(0.949694 0.31318 0.308574 -0.963868 155.045 134.756)"/><path d="M0-4.48937 0 0 2.24468 0" fill="#FFCC00" transform="matrix(0.584813 -0.81694 0.804927 0.593542 155.656 136.664)"/><path d="M0-4.46667 0 0 2.23334 0" fill="#FFCC00" transform="matrix(0 1.01493 1 0 156.509 133.999)"/><path d="M0-4.47308 0 0 2.23654 0" fill="#FFCC00" transform="matrix(0.949694 0.31318 -0.308574 0.963868 164.72 125.222)"/><path d="M0-4.47308 0 0 2.23654 0" fill="#FFCC00" transform="matrix(-0.949694 0.31318 0.308574 0.963868 167.48 125.222)"/><path d="M0-4.46667 0 0 2.23334 0" fill="#FFCC00" transform="matrix(0 1.01493 -1 0 165.881 124.043)"/><path d="M0-4.48937 0 0 2.24468 0" fill="#FFCC00" transform="matrix(-0.584813 -0.81694 -0.804927 0.593542 166.734 126.708)"/><path d="M0-4.47308 0 0 2.23654 0" fill="#FFCC00" transform="matrix(-0.949694 0.31318 -0.308574 -0.963868 167.345 124.8)"/><path d="M0-4.48937 0 0 2.24468 0" fill="#FFCC00" transform="matrix(0.584814 -0.81694 -0.804926 -0.593542 165.112 126.447)"/><path d="M0-4.48937 0 0 2.24468 0" fill="#FFCC00" transform="matrix(-0.584814 -0.81694 0.804926 -0.593542 167.088 126.447)"/><path d="M0-4.47308 0 0 2.23654 0" fill="#FFCC00" transform="matrix(0.949694 0.31318 0.308574 -0.963868 164.855 124.8)"/><path d="M0-4.48937 0 0 2.24468 0" fill="#FFCC00" transform="matrix(0.584813 -0.81694 0.804927 0.593542 165.466 126.708)"/><path d="M0-4.46667 0 0 2.23334 0" fill="#FFCC00" transform="matrix(0 1.01493 1 0 166.319 124.043)"/></g></g></g><path d="M134.5 104.574C134.5 96.2488 141.249 89.5001 149.574 89.5001L1045.43 89.5001C1053.75 89.5001 1060.5 96.2488 1060.5 104.574L1060.5 265.426C1060.5 273.751 1053.75 280.5 1045.43 280.5L149.574 280.5C141.249 280.5 134.5 273.751 134.5 265.426Z" stroke="#000000" stroke-width="8.52073" stroke-miterlimit="8" fill="none" fill-rule="evenodd"/><path d="M166.999 244 166.999 210 176.305 210C179.831 210 182.129 210.17 183.2 210.51 184.846 211.021 186.224 212.13 187.334 213.838 188.444 215.547 188.999 217.754 188.999 220.46 188.999 222.547 188.679 224.302 188.039 225.724 187.399 227.147 186.586 228.264 185.6 229.076 184.614 229.888 183.612 230.425 182.593 230.688 181.209 231.012 179.204 231.175 176.579 231.175L172.798 231.175 172.798 244 166.999 244ZM172.798 215.752 172.798 225.4 175.972 225.4C178.257 225.4 179.785 225.222 180.556 224.866 181.326 224.511 181.93 223.954 182.368 223.196 182.805 222.439 183.024 221.558 183.024 220.552 183.024 219.316 182.717 218.295 182.103 217.491 181.49 216.687 180.712 216.185 179.772 215.984 179.08 215.829 177.689 215.752 175.599 215.752L172.798 215.752Z" fill="#FFFFFF" fill-rule="evenodd"/><path d="M1060 310.055 1060 470.946C1060 479.26 1053.26 486 1044.95 486L222 486 222 295 1044.95 295C1053.26 295 1060 301.74 1060 310.055Z" fill="#FFFFFF" fill-rule="evenodd"/><path d="M970.499 297.197 970.499 487.5 1043.37 487.5C1051.95 487.467 1056.31 483.19 1057.5 475.725L1057.24 311.835C1056.2 303.122 1051.81 297.779 1043.37 296.5L970.499 297.197Z" stroke="#FBBC01" stroke-width="2.75507" stroke-miterlimit="8" fill="#FBBC01" fill-rule="evenodd"/><path d="M222.5 296.197 222.5 486.5 148.788 486.5C140.109 486.467 135.701 482.19 134.499 474.725L134.761 310.835C135.813 302.122 140.256 296.779 148.788 295.5L222.5 296.197Z" stroke="#003399" stroke-width="2.75507" stroke-miterlimit="8" fill="#003399" fill-rule="evenodd"/><g clip-path="url(#clip4)"><g clip-path="url(#clip5)"><g clip-path="url(#clip6)"><path d="M0-4.47291 0 0 2.23645 0" fill="#FFCC00" transform="matrix(0.963905 0.308586 -0.313192 0.94973 177.599 328.481)"/><path d="M0-4.47291 0 0 2.23645 0" fill="#FFCC00" transform="matrix(-0.963905 0.308586 0.313192 0.94973 180.401 328.481)"/><path d="M0-4.46667 0 0 2.23334 0" fill="#FFCC00" transform="matrix(0 1 -1.01493 0 178.778 327.32)"/><path d="M0-4.48982 0 0 2.24491 0" fill="#FFCC00" transform="matrix(-0.593483 -0.804847 -0.816859 0.584755 179.644 329.945)"/><path d="M0-4.47291 0 0 2.23645 0" fill="#FFCC00" transform="matrix(-0.963905 0.308586 -0.313192 -0.94973 180.264 328.066)"/><path d="M0-4.48981 0 0 2.24491 0" fill="#FFCC00" transform="matrix(0.593483 -0.804846 -0.816859 -0.584756 177.997 329.688)"/><path d="M0-4.48981 0 0 2.24491 0" fill="#FFCC00" transform="matrix(-0.593483 -0.804846 0.816859 -0.584756 180.003 329.688)"/><path d="M0-4.47291 0 0 2.23645 0" fill="#FFCC00" transform="matrix(0.963905 0.308586 0.313192 -0.94973 177.736 328.066)"/><path d="M0-4.48982 0 0 2.24491 0" fill="#FFCC00" transform="matrix(0.593483 -0.804847 0.816859 0.584755 178.356 329.945)"/><path d="M0-4.46667 0 0 2.23334 0" fill="#FFCC00" transform="matrix(0 1 1.01493 0 179.222 327.32)"/><path d="M0-4.47291 0 0 2.23645 0" fill="#FFCC00" transform="matrix(0.963905 0.308586 -0.313192 0.94973 191.199 332.072)"/><path d="M0-4.47291 0 0 2.23645 0" fill="#FFCC00" transform="matrix(-0.963905 0.308586 0.313192 0.94973 194.001 332.072)"/><path d="M0-4.46667 0 0 2.23334 0" fill="#FFCC00" transform="matrix(0 1 -1.01493 0 192.378 330.91)"/><path d="M0-4.48982 0 0 2.24491 0" fill="#FFCC00" transform="matrix(-0.593483 -0.804847 -0.816859 0.584755 193.244 333.536)"/><path d="M0-4.47291 0 0 2.23645 0" fill="#FFCC00" transform="matrix(-0.963905 0.308586 -0.313192 -0.94973 193.864 331.656)"/><path d="M0-4.48981 0 0 2.24491 0" fill="#FFCC00" transform="matrix(0.593483 -0.804846 -0.816859 -0.584756 191.597 333.279)"/><path d="M0-4.48981 0 0 2.24491 0" fill="#FFCC00" transform="matrix(-0.593483 -0.804846 0.816859 -0.584756 193.603 333.279)"/><path d="M0-4.47291 0 0 2.23645 0" fill="#FFCC00" transform="matrix(0.963905 0.308586 0.313192 -0.94973 191.336 331.656)"/><path d="M0-4.48982 0 0 2.24491 0" fill="#FFCC00" transform="matrix(0.593483 -0.804847 0.816859 0.584755 191.956 333.536)"/><path d="M0-4.46667 0 0 2.23334 0" fill="#FFCC00" transform="matrix(0 1 1.01493 0 192.822 330.91)"/><path d="M0-4.47291 0 0 2.23645 0" fill="#FFCC00" transform="matrix(0.963905 0.308586 -0.313192 0.94973 201.155 341.881)"/><path d="M0-4.47291 0 0 2.23645 0" fill="#FFCC00" transform="matrix(-0.963905 0.308586 0.313192 0.94973 203.957 341.881)"/><path d="M0-4.46667 0 0 2.23334 0" fill="#FFCC00" transform="matrix(0 1 -1.01493 0 202.334 340.72)"/><path d="M0-4.48982 0 0 2.24491 0" fill="#FFCC00" transform="matrix(-0.593483 -0.804847 -0.816859 0.584755 203.2 343.345)"/><path d="M0-4.47291 0 0 2.23645 0" fill="#FFCC00" transform="matrix(-0.963905 0.308586 -0.313192 -0.94973 203.82 341.466)"/><path d="M0-4.48981 0 0 2.24491 0" fill="#FFCC00" transform="matrix(0.593483 -0.804846 -0.816859 -0.584756 201.553 343.088)"/><path d="M0-4.48981 0 0 2.24491 0" fill="#FFCC00" transform="matrix(-0.593483 -0.804846 0.816859 -0.584756 203.559 343.088)"/><path d="M0-4.47291 0 0 2.23645 0" fill="#FFCC00" transform="matrix(0.963905 0.308586 0.313192 -0.94973 201.292 341.466)"/><path d="M0-4.48982 0 0 2.24491 0" fill="#FFCC00" transform="matrix(0.593483 -0.804847 0.816859 0.584755 201.912 343.345)"/><path d="M0-4.46667 0 0 2.23334 0" fill="#FFCC00" transform="matrix(0 1 1.01493 0 202.778 340.72)"/><path d="M0-4.47291 0 0 2.23645 0" fill="#FFCC00" transform="matrix(0.963905 0.308586 -0.313192 0.94973 204.799 355.281)"/><path d="M0-4.47291 0 0 2.23645 0" fill="#FFCC00" transform="matrix(-0.963905 0.308586 0.313192 0.94973 207.601 355.281)"/><path d="M0-4.46667 0 0 2.23334 0" fill="#FFCC00" transform="matrix(0 1 -1.01493 0 205.978 354.12)"/><path d="M0-4.48982 0 0 2.24491 0" fill="#FFCC00" transform="matrix(-0.593483 -0.804847 -0.816859 0.584755 206.844 356.745)"/><path d="M0-4.47291 0 0 2.23645 0" fill="#FFCC00" transform="matrix(-0.963905 0.308586 -0.313192 -0.94973 207.464 354.866)"/><path d="M0-4.48981 0 0 2.24491 0" fill="#FFCC00" transform="matrix(0.593483 -0.804846 -0.816859 -0.584756 205.197 356.488)"/><path d="M0-4.48981 0 0 2.24491 0" fill="#FFCC00" transform="matrix(-0.593483 -0.804846 0.816859 -0.584756 207.203 356.488)"/><path d="M0-4.47291 0 0 2.23645 0" fill="#FFCC00" transform="matrix(0.963905 0.308586 0.313192 -0.94973 204.936 354.866)"/><path d="M0-4.48982 0 0 2.24491 0" fill="#FFCC00" transform="matrix(0.593483 -0.804847 0.816859 0.584755 205.556 356.745)"/><path d="M0-4.46667 0 0 2.23334 0" fill="#FFCC00" transform="matrix(0 1 1.01493 0 206.422 354.12)"/><path d="M0-4.47291 0 0 2.23645 0" fill="#FFCC00" transform="matrix(0.963905 0.308586 -0.313192 0.94973 201.155 368.681)"/><path d="M0-4.47291 0 0 2.23645 0" fill="#FFCC00" transform="matrix(-0.963905 0.308586 0.313192 0.94973 203.957 368.681)"/><path d="M0-4.46667 0 0 2.23334 0" fill="#FFCC00" transform="matrix(0 1 -1.01493 0 202.334 367.52)"/><path d="M0-4.48982 0 0 2.24491 0" fill="#FFCC00" transform="matrix(-0.593483 -0.804847 -0.816859 0.584755 203.2 370.145)"/><path d="M0-4.47291 0 0 2.23645 0" fill="#FFCC00" transform="matrix(-0.963905 0.308586 -0.313192 -0.94973 203.82 368.266)"/><path d="M0-4.48981 0 0 2.24491 0" fill="#FFCC00" transform="matrix(0.593483 -0.804846 -0.816859 -0.584756 201.553 369.888)"/><path d="M0-4.48981 0 0 2.24491 0" fill="#FFCC00" transform="matrix(-0.593483 -0.804846 0.816859 -0.584756 203.559 369.888)"/><path d="M0-4.47291 0 0 2.23645 0" fill="#FFCC00" transform="matrix(0.963905 0.308586 0.313192 -0.94973 201.292 368.266)"/><path d="M0-4.48982 0 0 2.24491 0" fill="#FFCC00" transform="matrix(0.593483 -0.804847 0.816859 0.584755 201.912 370.145)"/><path d="M0-4.46667 0 0 2.23334 0" fill="#FFCC00" transform="matrix(0 1 1.01493 0 202.778 367.52)"/><path d="M0-4.47291 0 0 2.23645 0" fill="#FFCC00" transform="matrix(0.963905 0.308586 -0.313192 0.94973 191.199 378.491)"/><path d="M0-4.47291 0 0 2.23645 0" fill="#FFCC00" transform="matrix(-0.963905 0.308586 0.313192 0.94973 194.001 378.491)"/><path d="M0-4.46667 0 0 2.23334 0" fill="#FFCC00" transform="matrix(0 1 -1.01493 0 192.378 377.329)"/><path d="M0-4.48982 0 0 2.24491 0" fill="#FFCC00" transform="matrix(-0.593483 -0.804847 -0.816859 0.584755 193.244 379.955)"/><path d="M0-4.47291 0 0 2.23645 0" fill="#FFCC00" transform="matrix(-0.963905 0.308586 -0.313192 -0.94973 193.864 378.075)"/><path d="M0-4.48981 0 0 2.24491 0" fill="#FFCC00" transform="matrix(0.593483 -0.804846 -0.816859 -0.584756 191.597 379.698)"/><path d="M0-4.48981 0 0 2.24491 0" fill="#FFCC00" transform="matrix(-0.593483 -0.804846 0.816859 -0.584756 193.603 379.698)"/><path d="M0-4.47291 0 0 2.23645 0" fill="#FFCC00" transform="matrix(0.963905 0.308586 0.313192 -0.94973 191.336 378.075)"/><path d="M0-4.48982 0 0 2.24491 0" fill="#FFCC00" transform="matrix(0.593483 -0.804847 0.816859 0.584755 191.956 379.955)"/><path d="M0-4.46667 0 0 2.23334 0" fill="#FFCC00" transform="matrix(0 1 1.01493 0 192.822 377.329)"/><path d="M0-4.47291 0 0 2.23645 0" fill="#FFCC00" transform="matrix(0.963905 0.308586 -0.313192 0.94973 177.599 382.081)"/><path d="M0-4.47291 0 0 2.23645 0" fill="#FFCC00" transform="matrix(-0.963905 0.308586 0.313192 0.94973 180.401 382.081)"/><path d="M0-4.46667 0 0 2.23334 0" fill="#FFCC00" transform="matrix(2.48557e-16 1 -1.01493 3.10696e-16 178.778 380.92)"/><path d="M0-4.48982 0 0 2.24491 0" fill="#FFCC00" transform="matrix(-0.593483 -0.804847 -0.816859 0.584755 179.644 383.545)"/><path d="M0-4.47291 0 0 2.23645 0" fill="#FFCC00" transform="matrix(-0.963905 0.308586 -0.313192 -0.94973 180.264 381.666)"/><path d="M0-4.48981 0 0 2.24491 0" fill="#FFCC00" transform="matrix(0.593483 -0.804846 -0.816859 -0.584756 177.997 383.288)"/><path d="M0-4.48981 0 0 2.24491 0" fill="#FFCC00" transform="matrix(-0.593483 -0.804846 0.816859 -0.584756 180.003 383.288)"/><path d="M0-4.47291 0 0 2.23645 0" fill="#FFCC00" transform="matrix(0.963905 0.308586 0.313192 -0.94973 177.736 381.666)"/><path d="M0-4.48982 0 0 2.24491 0" fill="#FFCC00" transform="matrix(0.593483 -0.804847 0.816859 0.584755 178.356 383.545)"/><path d="M0-4.46667 0 0 2.23334 0" fill="#FFCC00" transform="matrix(2.48557e-16 1 1.01493 -2.48557e-16 179.222 380.92)"/><path d="M0-4.47291 0 0 2.23645 0" fill="#FFCC00" transform="matrix(0.963905 0.308586 -0.313192 0.94973 163.999 378.491)"/><path d="M0-4.47291 0 0 2.23645 0" fill="#FFCC00" transform="matrix(-0.963905 0.308586 0.313192 0.94973 166.801 378.491)"/><path d="M0-4.46667 0 0 2.23334 0" fill="#FFCC00" transform="matrix(0 1 -1.01493 0 165.178 377.329)"/><path d="M0-4.48982 0 0 2.24491 0" fill="#FFCC00" transform="matrix(-0.593483 -0.804847 -0.816859 0.584755 166.044 379.955)"/><path d="M0-4.47291 0 0 2.23645 0" fill="#FFCC00" transform="matrix(-0.963905 0.308586 -0.313192 -0.94973 166.664 378.075)"/><path d="M0-4.48981 0 0 2.24491 0" fill="#FFCC00" transform="matrix(0.593483 -0.804846 -0.816859 -0.584756 164.397 379.698)"/><path d="M0-4.48981 0 0 2.24491 0" fill="#FFCC00" transform="matrix(-0.593483 -0.804846 0.816859 -0.584756 166.403 379.698)"/><path d="M0-4.47291 0 0 2.23645 0" fill="#FFCC00" transform="matrix(0.963905 0.308586 0.313192 -0.94973 164.136 378.075)"/><path d="M0-4.48982 0 0 2.24491 0" fill="#FFCC00" transform="matrix(0.593483 -0.804847 0.816859 0.584755 164.756 379.955)"/><path d="M0-4.46667 0 0 2.23334 0" fill="#FFCC00" transform="matrix(0 1 1.01493 0 165.622 377.329)"/><path d="M0-4.47291 0 0 2.23645 0" fill="#FFCC00" transform="matrix(0.963905 0.308586 -0.313192 0.94973 154.043 368.681)"/><path d="M0-4.47291 0 0 2.23645 0" fill="#FFCC00" transform="matrix(-0.963905 0.308586 0.313192 0.94973 156.845 368.681)"/><path d="M0-4.46667 0 0 2.23334 0" fill="#FFCC00" transform="matrix(0 1 -1.01493 0 155.222 367.52)"/><path d="M0-4.48982 0 0 2.24491 0" fill="#FFCC00" transform="matrix(-0.593483 -0.804847 -0.816859 0.584755 156.088 370.145)"/><path d="M0-4.47291 0 0 2.23645 0" fill="#FFCC00" transform="matrix(-0.963905 0.308586 -0.313192 -0.94973 156.708 368.266)"/><path d="M0-4.48981 0 0 2.24491 0" fill="#FFCC00" transform="matrix(0.593483 -0.804846 -0.816859 -0.584756 154.441 369.888)"/><path d="M0-4.48981 0 0 2.24491 0" fill="#FFCC00" transform="matrix(-0.593483 -0.804846 0.816859 -0.584756 156.447 369.888)"/><path d="M0-4.47291 0 0 2.23645 0" fill="#FFCC00" transform="matrix(0.963905 0.308586 0.313192 -0.94973 154.18 368.266)"/><path d="M0-4.48982 0 0 2.24491 0" fill="#FFCC00" transform="matrix(0.593483 -0.804847 0.816859 0.584755 154.8 370.145)"/><path d="M0-4.46667 0 0 2.23334 0" fill="#FFCC00" transform="matrix(0 1 1.01493 0 155.666 367.52)"/><path d="M0-4.47291 0 0 2.23645 0" fill="#FFCC00" transform="matrix(0.963905 0.308586 -0.313192 0.94973 150.399 355.281)"/><path d="M0-4.47291 0 0 2.23645 0" fill="#FFCC00" transform="matrix(-0.963905 0.308586 0.313192 0.94973 153.201 355.281)"/><path d="M0-4.46667 0 0 2.23334 0" fill="#FFCC00" transform="matrix(0 1 -1.01493 0 151.578 354.12)"/><path d="M0-4.48982 0 0 2.24491 0" fill="#FFCC00" transform="matrix(-0.593483 -0.804847 -0.816859 0.584755 152.444 356.745)"/><path d="M0-4.47291 0 0 2.23645 0" fill="#FFCC00" transform="matrix(-0.963905 0.308586 -0.313192 -0.94973 153.064 354.866)"/><path d="M0-4.48981 0 0 2.24491 0" fill="#FFCC00" transform="matrix(0.593483 -0.804846 -0.816859 -0.584756 150.797 356.488)"/><path d="M0-4.48981 0 0 2.24491 0" fill="#FFCC00" transform="matrix(-0.593483 -0.804846 0.816859 -0.584756 152.803 356.488)"/><path d="M0-4.47291 0 0 2.23645 0" fill="#FFCC00" transform="matrix(0.963905 0.308586 0.313192 -0.94973 150.536 354.866)"/><path d="M0-4.48982 0 0 2.24491 0" fill="#FFCC00" transform="matrix(0.593483 -0.804847 0.816859 0.584755 151.156 356.745)"/><path d="M0-4.46667 0 0 2.23334 0" fill="#FFCC00" transform="matrix(0 1 1.01493 0 152.022 354.12)"/><path d="M0-4.47291 0 0 2.23645 0" fill="#FFCC00" transform="matrix(0.963905 0.308586 -0.313192 0.94973 154.043 341.881)"/><path d="M0-4.47291 0 0 2.23645 0" fill="#FFCC00" transform="matrix(-0.963905 0.308586 0.313192 0.94973 156.845 341.881)"/><path d="M0-4.46667 0 0 2.23334 0" fill="#FFCC00" transform="matrix(0 1 -1.01493 0 155.222 340.72)"/><path d="M0-4.48982 0 0 2.24491 0" fill="#FFCC00" transform="matrix(-0.593483 -0.804847 -0.816859 0.584755 156.088 343.345)"/><path d="M0-4.47291 0 0 2.23645 0" fill="#FFCC00" transform="matrix(-0.963905 0.308586 -0.313192 -0.94973 156.708 341.466)"/><path d="M0-4.48981 0 0 2.24491 0" fill="#FFCC00" transform="matrix(0.593483 -0.804846 -0.816859 -0.584756 154.441 343.088)"/><path d="M0-4.48981 0 0 2.24491 0" fill="#FFCC00" transform="matrix(-0.593483 -0.804846 0.816859 -0.584756 156.447 343.088)"/><path d="M0-4.47291 0 0 2.23645 0" fill="#FFCC00" transform="matrix(0.963905 0.308586 0.313192 -0.94973 154.18 341.466)"/><path d="M0-4.48982 0 0 2.24491 0" fill="#FFCC00" transform="matrix(0.593483 -0.804847 0.816859 0.584755 154.8 343.345)"/><path d="M0-4.46667 0 0 2.23334 0" fill="#FFCC00" transform="matrix(0 1 1.01493 0 155.666 340.72)"/><path d="M0-4.47291 0 0 2.23645 0" fill="#FFCC00" transform="matrix(0.963905 0.308586 -0.313192 0.94973 163.999 332.072)"/><path d="M0-4.47291 0 0 2.23645 0" fill="#FFCC00" transform="matrix(-0.963905 0.308586 0.313192 0.94973 166.801 332.072)"/><path d="M0-4.46667 0 0 2.23334 0" fill="#FFCC00" transform="matrix(0 1 -1.01493 0 165.178 330.91)"/><path d="M0-4.48982 0 0 2.24491 0" fill="#FFCC00" transform="matrix(-0.593483 -0.804847 -0.816859 0.584755 166.044 333.536)"/><path d="M0-4.47291 0 0 2.23645 0" fill="#FFCC00" transform="matrix(-0.963905 0.308586 -0.313192 -0.94973 166.664 331.656)"/><path d="M0-4.48981 0 0 2.24491 0" fill="#FFCC00" transform="matrix(0.593483 -0.804846 -0.816859 -0.584756 164.397 333.279)"/><path d="M0-4.48981 0 0 2.24491 0" fill="#FFCC00" transform="matrix(-0.593483 -0.804846 0.816859 -0.584756 166.403 333.279)"/><path d="M0-4.47291 0 0 2.23645 0" fill="#FFCC00" transform="matrix(0.963905 0.308586 0.313192 -0.94973 164.136 331.656)"/><path d="M0-4.48982 0 0 2.24491 0" fill="#FFCC00" transform="matrix(0.593483 -0.804847 0.816859 0.584755 164.756 333.536)"/><path d="M0-4.46667 0 0 2.23334 0" fill="#FFCC00" transform="matrix(0 1 1.01493 0 165.622 330.91)"/></g></g></g><path d="M134.5 310.574C134.5 302.249 141.249 295.5 149.574 295.5L1045.43 295.5C1053.75 295.5 1060.5 302.249 1060.5 310.574L1060.5 471.426C1060.5 479.751 1053.75 486.5 1045.43 486.5L149.574 486.5C141.249 486.5 134.5 479.751 134.5 471.426Z" stroke="#000000" stroke-width="8.52073" stroke-miterlimit="8" fill="none" fill-rule="evenodd"/><path d="M166.999 451 166.999 416 176.305 416C179.831 416 182.129 416.175 183.2 416.525 184.846 417.051 186.224 418.192 187.334 419.951 188.444 421.71 188.999 423.982 188.999 426.767 188.999 428.916 188.679 430.723 188.039 432.187 187.399 433.651 186.586 434.801 185.6 435.637 184.614 436.472 183.612 437.026 182.593 437.296 181.209 437.63 179.204 437.797 176.579 437.797L172.798 437.797 172.798 451 166.999 451ZM172.798 421.921 172.798 431.853 175.972 431.853C178.257 431.853 179.785 431.67 180.556 431.303 181.326 430.938 181.93 430.365 182.368 429.585 182.805 428.805 183.024 427.897 183.024 426.863 183.024 425.59 182.717 424.539 182.103 423.711 181.49 422.884 180.712 422.367 179.772 422.16 179.08 422 177.689 421.921 175.599 421.921L172.798 421.921Z" fill="#FFFFFF" fill-rule="evenodd"/><path d="M987 394 1041 394" stroke="#000000" stroke-width="4" stroke-linecap="round" stroke-miterlimit="8" fill="none" fill-rule="evenodd"/><path d="M441.078 380.5 457.921 380.5C458.795 380.5 459.5 381.204 459.5 382.078L459.5 398.921C459.5 399.795 458.795 400.5 457.921 400.5L441.078 400.5C440.204 400.5 439.499 399.795 439.499 398.921L439.499 382.078C439.499 381.204 440.204 380.5 441.078 380.5Z" stroke="#000000" stroke-width="3.4421" stroke-linecap="round" stroke-miterlimit="8" fill-rule="evenodd"/><path d="M691.078 380.5 707.921 380.5C708.795 380.5 709.5 381.204 709.5 382.078L709.5 398.921C709.5 399.795 708.795 400.5 707.921 400.5L691.078 400.5C690.204 400.5 689.499 399.795 689.499 398.921L689.499 382.078C689.499 381.204 690.204 380.5 691.078 380.5Z" stroke="#000000" stroke-width="3.4421" stroke-linecap="round" stroke-miterlimit="8" fill-rule="evenodd"/><path d="M11.373 36.8983C11.1264 36.8927 10.9056 36.8775 10.737 36.8518 9.26015 36.6082 8.02546 35.859 7.17068 34.6884 6.59607 33.9111 6.25414 33.0214 6.06895 31.8414 5.98821 31.3076 5.98346 30.7176 5.98346 21.4461 5.98346 12.1746 5.98821 11.5845 6.06895 11.0507 6.4821 8.39104 8.01596 6.65847 10.4236 6.13404 11.0219 6.00291 12.6508 6.00291 13.2729 6.13404 13.9662 6.27451 14.6358 6.55546 15.2056 6.93007 16.768 7.96024 17.6133 9.6085 17.7415 11.903 17.77 12.4368 17.7842 16.2297 17.7747 22.0642L17.7605 31.3731 17.6512 31.9819C17.5895 32.319 17.4945 32.7217 17.4471 32.8903 16.8344 34.857 15.4573 36.2149 13.572 36.7113 13.0841 36.8447 12.1127 36.915 11.373 36.8983ZM42 42.7123 42 21.5002 42 0.288082 38.9608 0.288082 35.9215 0.288082 35.9215 18.2598 35.9215 36.2222 33.02 34.087C31.4244 32.9163 30.0805 31.9236 30.0283 31.8955 29.9381 31.8393 29.9381 31.9142 29.9381 35.0609L29.9381 38.2732 32.4217 40.09C33.7846 41.0921 35.138 42.0848 35.4229 42.3002L35.9453 42.6935 38.975 42.7029ZM11.9712 42.995C13.0223 42.9643 14.2938 42.7939 15.1486 42.5551 18.3113 41.6654 21.0941 39.4927 22.438 36.8518 23.0601 35.6343 23.3878 34.5854 23.6347 32.9933L23.7439 32.3096 23.7582 21.8769C23.7677 12.8208 23.763 11.3317 23.6965 10.6106 23.44 7.68863 22.4238 5.3661 20.6097 3.57734 18.8764 1.86352 16.7157 0.702249 14.2701 0.168414 13.3393-0.0375949 10.6135-0.0563456 9.68754 0.121599 7.72629 0.514928 6.0642 1.24543 4.48761 2.40669 1.95176 4.27974 0.588844 6.62103 0.109229 9.92692L0 10.6761 0 21.4461C0 31.5979 0.00474774 32.2534 0.0854594 32.8716 0.204184 33.7519 0.531871 35.0817 0.821546 35.8216 1.39615 37.3106 2.39339 38.7529 3.57583 39.7924 5.72702 41.6935 8.17741 42.7424 11.0172 42.9766 11.295 43 11.6209 43.0053 11.9712 42.995Z" fill-rule="evenodd" transform="matrix(1 0 0 -1 993 462)"/><path d="M38.7283 19.4014C38.4577 19.3949 38.2267 19.3773 38.0756 19.3469 36.1734 18.9537 34.4364 17.7179 33.4735 16.0702 32.6286 14.6284 32.3926 12.7373 32.8316 10.9211 33.0062 10.1908 33.6057 9.02995 34.106 8.4495 35.0972 7.29796 36.4614 6.48347 37.934 6.14645 38.5146 6.01536 40.1383 6.01536 40.7425 6.14645 42.2718 6.48347 43.9191 7.5601 44.8301 8.81461 45.3069 9.46995 45.6609 10.2283 45.8544 10.996 46.0054 11.6139 46.029 11.7917 46.0432 12.5501 46.0621 13.5425 45.9771 14.1603 45.6986 14.9936 45.0661 16.8753 43.2394 18.5699 41.1437 19.2065 40.7083 19.3399 39.5401 19.4207 38.7283 19.4014ZM38.8502 36.8985C38.632 36.892 38.4403 36.8773 38.3022 36.8539 36.6266 36.5544 35.0264 35.5339 34.224 34.2513 33.6906 33.39 33.4169 32.4163 33.3697 31.1899 33.28 28.9056 34.0116 27.1923 35.5504 26.0595 38.1039 24.1777 41.5402 24.4305 43.7775 26.6493 44.8254 27.6885 45.3493 29.2613 45.2833 31.1431 45.2408 32.4163 44.9717 33.3806 44.4242 34.2513 43.7209 35.3747 42.2954 36.3578 40.7897 36.7603 40.3968 36.8657 39.5046 36.9183 38.8502 36.8985ZM11.8233 36.9637C11.323 36.9918 10.8274 36.9848 10.4851 36.9333 8.75759 36.6618 7.43122 35.7911 6.70905 34.4617 6.33146 33.7596 6.12376 33.1416 5.95856 32.1867 5.83584 31.4846 5.83112 31.3629 5.81224 29.2002 5.79336 26.8223 5.8264 25.989 5.9916 25.0622 6.51554 22.1038 8.40829 20.5497 11.4905 20.5497 13.8742 20.5497 15.4271 21.4017 16.357 23.2179 16.8337 24.1447 17.0508 24.9686 17.1641 26.2137 17.2585 27.3372 17.2302 31.0071 17.1169 31.7842 16.7063 34.5553 15.4082 36.2124 13.1898 36.7835 12.8287 36.8725 12.3236 36.9356 11.8233 36.9637ZM38.0756 42.9393C40.0109 43.1171 42.2813 42.8082 43.8861 42.1341 46.4114 41.0856 48.6487 38.9885 49.9184 36.4982 50.8435 34.6819 51.2448 32.9781 51.2495 30.8622 51.2542 29.7856 51.207 29.2613 51.0371 28.4375 50.6595 26.5931 49.5597 24.7114 47.7613 22.8109 47.4451 22.4832 47.2043 22.1836 47.2232 22.1462 47.2421 22.1181 47.4923 21.9121 47.7755 21.6874 48.4693 21.1538 49.2859 20.3299 49.8051 19.6559 51.2731 17.7366 52 15.4148 52 12.6718 52 9.02058 50.8813 6.15579 48.5449 3.80591 46.6568 1.89606 44.4525 0.70709 41.8517 0.182805 40.8275-0.0231659 37.9671-0.0512515 37.0136 0.136006 35.1114 0.510491 33.6906 1.08158 32.1991 2.06457 29.5133 3.84337 27.7763 6.24942 27.0541 9.18909 26.7709 10.3313 26.6954 10.9492 26.6671 12.3254 26.6388 13.7859 26.7143 14.5723 26.9975 15.7425 27.5922 18.1767 28.8242 20.0584 30.8916 21.6874L31.5194 22.1836 30.8444 22.8764C30.0845 23.6535 29.1499 24.8612 28.6684 25.685 28.0501 26.7336 27.6489 27.9226 27.479 29.2239 27.3751 29.9822 27.3751 31.5644 27.4742 32.407 27.7055 34.3356 28.4655 36.339 29.5605 37.8931 31.6279 40.8235 34.6394 42.6116 38.0756 42.9393ZM11.5879 42.9987C12.28 42.9929 12.9868 42.9671 13.2842 42.925 15.7858 42.5599 17.9146 41.4926 19.7035 39.7138 21.1621 38.2721 22.2288 36.203 22.6536 34.0123 22.9793 32.3365 22.9604 33.1323 22.9604 21.4859L22.9604 10.9536 22.8519 10.1578C22.3987 6.76878 21.0629 4.27847 18.684 2.40605 17.2916 1.30134 15.7528 0.589828 13.827 0.168514 12.798-0.0561712 10.268-0.0561712 9.25794 0.168514 5.34496 1.04857 2.40904 3.45462 1.01189 6.90921 0.761715 7.52709 0.233055 9.31526 0.233055 9.53995 0.233055 9.56803 1.5783 9.56803 3.22088 9.53057L6.20402 9.4744 6.55801 8.80969C7.12442 7.74244 7.83244 7.02155 8.75759 6.56281 10.4899 5.69213 13.1379 5.80447 14.7049 6.79687 16.1351 7.69561 16.947 9.30589 17.1547 11.6277 17.2491 12.6575 17.2538 16.4304 17.1594 16.4304 17.1264 16.4304 16.6732 16.3087 16.1587 16.1495 13.8317 15.4661 12.0758 15.204 9.76769 15.2133 7.63421 15.2133 6.71377 15.3912 5.37327 16.0559 4.03747 16.73 2.5884 17.9939 1.82844 19.1641 0.761715 20.7931 0.185864 22.8621 0.0442606 25.5584-0.0171182 26.6631-0.0123992 30.6513 0.0442606 31.7748 0.14808 33.7315 0.539856 35.2856 1.31869 36.849 1.88038 37.9818 2.39961 38.7027 3.27754 39.5734 5.24583 41.5394 7.1858 42.5224 9.98011 42.9531 10.2185 42.9905 10.8958 43.0046 11.5879 42.9987Z" fill-rule="evenodd" transform="matrix(1 0 0 -1 989 367)"/><path d="M1060 517.055 1060 677.946C1060 686.26 1053.26 693 1044.95 693L222 693 222 502 1044.95 502C1053.26 502 1060 508.74 1060 517.055Z" fill="#FFFFFF" fill-rule="evenodd"/><path d="M222.5 503.197 222.5 693.5 149.625 693.5C141.045 693.467 136.687 689.19 135.499 681.725L135.758 517.835C136.798 509.122 141.19 503.779 149.625 502.5L222.5 503.197Z" stroke="#003399" stroke-width="2.75507" stroke-miterlimit="8" fill="#003399" fill-rule="evenodd"/><g clip-path="url(#clip7)"><g clip-path="url(#clip8)"><g clip-path="url(#clip9)"><path d="M179.5 531.233 178.12 535.481 180.244 536.172" fill="#FFCC00"/><path d="M0-4.46667 0 0 2.23333 0" fill="#FFCC00" transform="matrix(-0.951057 0.309017 0.309017 0.951057 180.88 535.481)"/><path d="M183.748 534.32 179.281 534.32 179.281 536.553" fill="#FFCC00"/><path d="M0-4.46667 0 0 2.23334 0" fill="#FFCC00" transform="matrix(-0.587785 -0.809017 -0.809017 0.587785 180.134 536.945)"/><path d="M182.125 539.314 180.745 535.066 178.621 535.756" fill="#FFCC00"/><path d="M0-4.46667 0 0 2.23333 0" fill="#FFCC00" transform="matrix(0.587786 -0.809017 -0.809017 -0.587786 178.512 536.688)"/><path d="M176.875 539.314 180.488 536.688 179.175 534.881" fill="#FFCC00"/><path d="M0-4.46667 0 0 2.23333 0" fill="#FFCC00" transform="matrix(0.951057 0.309017 0.309017 -0.951057 178.255 535.066)"/><path d="M175.252 534.32 178.866 536.945 180.178 535.138" fill="#FFCC00"/><path d="M0-4.46667 0 0 2.23334 0" fill="#FFCC00" transform="matrix(0 1 1 0 179.719 534.32)"/><path d="M192.9 534.824 191.52 539.072 193.644 539.762" fill="#FFCC00"/><path d="M0-4.46667 0 0 2.23333 0" fill="#FFCC00" transform="matrix(-0.951057 0.309017 0.309017 0.951057 194.28 539.072)"/><path d="M197.148 537.91 192.681 537.91 192.681 540.144" fill="#FFCC00"/><path d="M0-4.46667 0 0 2.23334 0" fill="#FFCC00" transform="matrix(-0.587785 -0.809017 -0.809017 0.587785 193.534 540.536)"/><path d="M195.525 542.904 194.145 538.656 192.021 539.346" fill="#FFCC00"/><path d="M0-4.46667 0 0 2.23333 0" fill="#FFCC00" transform="matrix(0.587786 -0.809017 -0.809017 -0.587786 191.912 540.279)"/><path d="M190.275 542.904 193.888 540.279 192.575 538.472" fill="#FFCC00"/><path d="M0-4.46667 0 0 2.23333 0" fill="#FFCC00" transform="matrix(0.951057 0.309017 0.309017 -0.951057 191.655 538.656)"/><path d="M188.652 537.91 192.266 540.536 193.578 538.729" fill="#FFCC00"/><path d="M0-4.46667 0 0 2.23334 0" fill="#FFCC00" transform="matrix(0 1 1 0 193.119 537.91)"/><path d="M202.709 544.633 201.329 548.881 203.453 549.572" fill="#FFCC00"/><path d="M0-4.46667 0 0 2.23333 0" fill="#FFCC00" transform="matrix(-0.951057 0.309017 0.309017 0.951057 204.09 548.881)"/><path d="M206.958 547.72 202.491 547.72 202.491 549.953" fill="#FFCC00"/><path d="M0-4.46667 0 0 2.23334 0" fill="#FFCC00" transform="matrix(-0.587785 -0.809017 -0.809017 0.587785 203.344 550.345)"/><path d="M205.335 552.714 203.955 548.466 201.831 549.156" fill="#FFCC00"/><path d="M0-4.46667 0 0 2.23333 0" fill="#FFCC00" transform="matrix(0.587786 -0.809017 -0.809017 -0.587786 201.721 550.088)"/><path d="M200.084 552.714 203.698 550.088 202.385 548.281" fill="#FFCC00"/><path d="M0-4.46667 0 0 2.23333 0" fill="#FFCC00" transform="matrix(0.951057 0.309017 0.309017 -0.951057 201.464 548.466)"/><path d="M198.461 547.72 202.075 550.345 203.388 548.538" fill="#FFCC00"/><path d="M0-4.46667 0 0 2.23334 0" fill="#FFCC00" transform="matrix(0 1 1 0 202.928 547.72)"/><path d="M206.3 558.033 204.92 562.281 207.044 562.971" fill="#FFCC00"/><path d="M0-4.46667 0 0 2.23333 0" fill="#FFCC00" transform="matrix(-0.951057 0.309017 0.309017 0.951057 207.68 562.281)"/><path d="M210.548 561.12 206.081 561.12 206.081 563.353" fill="#FFCC00"/><path d="M0-4.46667 0 0 2.23334 0" fill="#FFCC00" transform="matrix(-0.587785 -0.809017 -0.809017 0.587785 206.934 563.745)"/><path d="M208.925 566.114 207.545 561.866 205.421 562.556" fill="#FFCC00"/><path d="M0-4.46667 0 0 2.23333 0" fill="#FFCC00" transform="matrix(0.587786 -0.809017 -0.809017 -0.587786 205.312 563.488)"/><path d="M203.675 566.114 207.288 563.488 205.975 561.681" fill="#FFCC00"/><path d="M0-4.46667 0 0 2.23333 0" fill="#FFCC00" transform="matrix(0.951057 0.309017 0.309017 -0.951057 205.055 561.866)"/><path d="M202.052 561.12 205.666 563.745 206.978 561.938" fill="#FFCC00"/><path d="M0-4.46667 0 0 2.23334 0" fill="#FFCC00" transform="matrix(0 1 1 0 206.519 561.12)"/><path d="M202.709 571.433 201.329 575.681 203.453 576.372" fill="#FFCC00"/><path d="M0-4.46667 0 0 2.23333 0" fill="#FFCC00" transform="matrix(-0.951057 0.309017 0.309017 0.951057 204.09 575.681)"/><path d="M206.958 574.52 202.491 574.52 202.491 576.753" fill="#FFCC00"/><path d="M0-4.46667 0 0 2.23334 0" fill="#FFCC00" transform="matrix(-0.587785 -0.809017 -0.809017 0.587785 203.344 577.145)"/><path d="M205.335 579.514 203.955 575.266 201.831 575.956" fill="#FFCC00"/><path d="M0-4.46667 0 0 2.23333 0" fill="#FFCC00" transform="matrix(0.587786 -0.809017 -0.809017 -0.587786 201.721 576.888)"/><path d="M200.084 579.514 203.698 576.888 202.385 575.081" fill="#FFCC00"/><path d="M0-4.46667 0 0 2.23333 0" fill="#FFCC00" transform="matrix(0.951057 0.309017 0.309017 -0.951057 201.464 575.266)"/><path d="M198.461 574.52 202.075 577.145 203.388 575.338" fill="#FFCC00"/><path d="M0-4.46667 0 0 2.23334 0" fill="#FFCC00" transform="matrix(0 1 1 0 202.928 574.52)"/><path d="M192.9 581.243 191.52 585.491 193.644 586.181" fill="#FFCC00"/><path d="M0-4.46667 0 0 2.23333 0" fill="#FFCC00" transform="matrix(-0.951057 0.309017 0.309017 0.951057 194.28 585.491)"/><path d="M197.148 584.329 192.681 584.329 192.681 586.563" fill="#FFCC00"/><path d="M0-4.46667 0 0 2.23334 0" fill="#FFCC00" transform="matrix(-0.587785 -0.809017 -0.809017 0.587785 193.534 586.955)"/><path d="M195.525 589.323 194.145 585.075 192.021 585.765" fill="#FFCC00"/><path d="M0-4.46667 0 0 2.23333 0" fill="#FFCC00" transform="matrix(0.587786 -0.809017 -0.809017 -0.587786 191.912 586.698)"/><path d="M190.275 589.323 193.888 586.698 192.575 584.891" fill="#FFCC00"/><path d="M0-4.46667 0 0 2.23333 0" fill="#FFCC00" transform="matrix(0.951057 0.309017 0.309017 -0.951057 191.655 585.075)"/><path d="M188.652 584.329 192.266 586.955 193.578 585.148" fill="#FFCC00"/><path d="M0-4.46667 0 0 2.23334 0" fill="#FFCC00" transform="matrix(0 1 1 0 193.119 584.329)"/><path d="M179.5 584.833 178.12 589.081 180.244 589.771" fill="#FFCC00"/><path d="M0-4.46667 0 0 2.23333 0" fill="#FFCC00" transform="matrix(-0.951057 0.309017 0.309017 0.951057 180.88 589.081)"/><path d="M183.748 587.92 179.281 587.92 179.281 590.153" fill="#FFCC00"/><path d="M0-4.46667 0 0 2.23334 0" fill="#FFCC00" transform="matrix(-0.587785 -0.809017 -0.809017 0.587785 180.134 590.545)"/><path d="M182.125 592.914 180.745 588.666 178.621 589.356" fill="#FFCC00"/><path d="M0-4.46667 0 0 2.23333 0" fill="#FFCC00" transform="matrix(0.587786 -0.809017 -0.809017 -0.587786 178.512 590.288)"/><path d="M176.875 592.914 180.488 590.288 179.175 588.481" fill="#FFCC00"/><path d="M0-4.46667 0 0 2.23333 0" fill="#FFCC00" transform="matrix(0.951057 0.309017 0.309017 -0.951057 178.255 588.666)"/><path d="M175.252 587.92 178.866 590.545 180.178 588.738" fill="#FFCC00"/><path d="M0-4.46667 0 0 2.23334 0" fill="#FFCC00" transform="matrix(2.48557e-16 1 1 -2.48557e-16 179.719 587.92)"/><path d="M166.1 581.243 164.72 585.491 166.844 586.181" fill="#FFCC00"/><path d="M0-4.46667 0 0 2.23333 0" fill="#FFCC00" transform="matrix(-0.951057 0.309017 0.309017 0.951057 167.48 585.491)"/><path d="M170.348 584.329 165.881 584.329 165.881 586.563" fill="#FFCC00"/><path d="M0-4.46667 0 0 2.23334 0" fill="#FFCC00" transform="matrix(-0.587785 -0.809017 -0.809017 0.587785 166.734 586.955)"/><path d="M168.725 589.323 167.345 585.075 165.221 585.765" fill="#FFCC00"/><path d="M0-4.46667 0 0 2.23333 0" fill="#FFCC00" transform="matrix(0.587786 -0.809017 -0.809017 -0.587786 165.112 586.698)"/><path d="M163.475 589.323 167.088 586.698 165.775 584.891" fill="#FFCC00"/><path d="M0-4.46667 0 0 2.23333 0" fill="#FFCC00" transform="matrix(0.951057 0.309017 0.309017 -0.951057 164.855 585.075)"/><path d="M161.852 584.329 165.466 586.955 166.778 585.148" fill="#FFCC00"/><path d="M0-4.46667 0 0 2.23334 0" fill="#FFCC00" transform="matrix(0 1 1 0 166.319 584.329)"/><path d="M156.291 571.433 154.91 575.681 157.034 576.372" fill="#FFCC00"/><path d="M0-4.46667 0 0 2.23333 0" fill="#FFCC00" transform="matrix(-0.951057 0.309017 0.309017 0.951057 157.671 575.681)"/><path d="M160.539 574.52 156.072 574.52 156.072 576.753" fill="#FFCC00"/><path d="M0-4.46667 0 0 2.23334 0" fill="#FFCC00" transform="matrix(-0.587785 -0.809017 -0.809017 0.587785 156.925 577.145)"/><path d="M158.916 579.514 157.536 575.266 155.412 575.956" fill="#FFCC00"/><path d="M0-4.46667 0 0 2.23333 0" fill="#FFCC00" transform="matrix(0.587786 -0.809017 -0.809017 -0.587786 155.302 576.888)"/><path d="M153.665 579.514 157.279 576.888 155.966 575.081" fill="#FFCC00"/><path d="M0-4.46667 0 0 2.23333 0" fill="#FFCC00" transform="matrix(0.951057 0.309017 0.309017 -0.951057 155.045 575.266)"/><path d="M152.042 574.52 155.656 577.145 156.969 575.338" fill="#FFCC00"/><path d="M0-4.46667 0 0 2.23334 0" fill="#FFCC00" transform="matrix(0 1 1 0 156.509 574.52)"/><path d="M152.7 558.033 151.32 562.281 153.444 562.971" fill="#FFCC00"/><path d="M0-4.46667 0 0 2.23333 0" fill="#FFCC00" transform="matrix(-0.951057 0.309017 0.309017 0.951057 154.08 562.281)"/><path d="M156.948 561.12 152.481 561.12 152.481 563.353" fill="#FFCC00"/><path d="M0-4.46667 0 0 2.23334 0" fill="#FFCC00" transform="matrix(-0.587785 -0.809017 -0.809017 0.587785 153.334 563.745)"/><path d="M155.325 566.114 153.945 561.866 151.821 562.556" fill="#FFCC00"/><path d="M0-4.46667 0 0 2.23333 0" fill="#FFCC00" transform="matrix(0.587786 -0.809017 -0.809017 -0.587786 151.712 563.488)"/><path d="M150.075 566.114 153.688 563.488 152.375 561.681" fill="#FFCC00"/><path d="M0-4.46667 0 0 2.23333 0" fill="#FFCC00" transform="matrix(0.951057 0.309017 0.309017 -0.951057 151.455 561.866)"/><path d="M148.452 561.12 152.066 563.745 153.378 561.938" fill="#FFCC00"/><path d="M0-4.46667 0 0 2.23334 0" fill="#FFCC00" transform="matrix(0 1 1 0 152.919 561.12)"/><path d="M156.291 544.633 154.91 548.881 157.034 549.572" fill="#FFCC00"/><path d="M0-4.46667 0 0 2.23333 0" fill="#FFCC00" transform="matrix(-0.951057 0.309017 0.309017 0.951057 157.671 548.881)"/><path d="M160.539 547.72 156.072 547.72 156.072 549.953" fill="#FFCC00"/><path d="M0-4.46667 0 0 2.23334 0" fill="#FFCC00" transform="matrix(-0.587785 -0.809017 -0.809017 0.587785 156.925 550.345)"/><path d="M158.916 552.714 157.536 548.466 155.412 549.156" fill="#FFCC00"/><path d="M0-4.46667 0 0 2.23333 0" fill="#FFCC00" transform="matrix(0.587786 -0.809017 -0.809017 -0.587786 155.302 550.088)"/><path d="M153.665 552.714 157.279 550.088 155.966 548.281" fill="#FFCC00"/><path d="M0-4.46667 0 0 2.23333 0" fill="#FFCC00" transform="matrix(0.951057 0.309017 0.309017 -0.951057 155.045 548.466)"/><path d="M152.042 547.72 155.656 550.345 156.969 548.538" fill="#FFCC00"/><path d="M0-4.46667 0 0 2.23334 0" fill="#FFCC00" transform="matrix(0 1 1 0 156.509 547.72)"/><path d="M166.1 534.824 164.72 539.072 166.844 539.762" fill="#FFCC00"/><path d="M0-4.46667 0 0 2.23333 0" fill="#FFCC00" transform="matrix(-0.951057 0.309017 0.309017 0.951057 167.48 539.072)"/><path d="M170.348 537.91 165.881 537.91 165.881 540.144" fill="#FFCC00"/><path d="M0-4.46667 0 0 2.23334 0" fill="#FFCC00" transform="matrix(-0.587785 -0.809017 -0.809017 0.587785 166.734 540.536)"/><path d="M168.725 542.904 167.345 538.656 165.221 539.346" fill="#FFCC00"/><path d="M0-4.46667 0 0 2.23333 0" fill="#FFCC00" transform="matrix(0.587786 -0.809017 -0.809017 -0.587786 165.112 540.279)"/><path d="M163.475 542.904 167.088 540.279 165.775 538.472" fill="#FFCC00"/><path d="M0-4.46667 0 0 2.23333 0" fill="#FFCC00" transform="matrix(0.951057 0.309017 0.309017 -0.951057 164.855 538.656)"/><path d="M161.852 537.91 165.466 540.536 166.778 538.729" fill="#FFCC00"/><path d="M0-4.46667 0 0 2.23334 0" fill="#FFCC00" transform="matrix(0 1 1 0 166.319 537.91)"/></g></g></g><path d="M134.5 517.574C134.5 509.249 141.249 502.5 149.574 502.5L1045.43 502.5C1053.75 502.5 1060.5 509.249 1060.5 517.574L1060.5 678.426C1060.5 686.751 1053.75 693.5 1045.43 693.5L149.574 693.5C141.249 693.5 134.5 686.751 134.5 678.426Z" stroke="#000000" stroke-width="8.52073" stroke-miterlimit="8" fill="none" fill-rule="evenodd"/><path d="M166.999 658 166.999 623 176.305 623C179.831 623 182.129 623.175 183.2 623.525 184.846 624.051 186.224 625.192 187.334 626.951 188.444 628.71 188.999 630.982 188.999 633.767 188.999 635.916 188.679 637.723 188.039 639.187 187.399 640.651 186.586 641.801 185.6 642.637 184.614 643.472 183.612 644.026 182.593 644.296 181.209 644.63 179.204 644.797 176.579 644.797L172.798 644.797 172.798 658 166.999 658ZM172.798 628.921 172.798 638.853 175.972 638.853C178.257 638.853 179.785 638.67 180.556 638.304 181.326 637.938 181.93 637.365 182.368 636.585 182.805 635.805 183.024 634.897 183.024 633.863 183.024 632.59 182.717 631.539 182.103 630.711 181.49 629.884 180.712 629.367 179.772 629.16 179.08 629 177.689 628.921 175.599 628.921L172.798 628.921Z" fill="#FFFFFF" fill-rule="evenodd"/><path d="M472.157 591.5 489.842 591.5C490.76 591.5 491.5 592.204 491.5 593.078L491.5 609.921C491.5 610.795 490.76 611.5 489.842 611.5L472.157 611.5C471.239 611.5 470.499 610.795 470.499 609.921L470.499 593.078C470.499 592.204 471.239 591.5 472.157 591.5Z" stroke="#000000" stroke-width="3.4421" stroke-linecap="round" stroke-miterlimit="8" fill-rule="evenodd"/><path d="M732.078 591.5 748.921 591.5C749.795 591.5 750.5 592.204 750.5 593.078L750.5 609.921C750.5 610.795 749.795 611.5 748.921 611.5L732.078 611.5C731.204 611.5 730.499 610.795 730.499 609.921L730.499 593.078C730.499 592.204 731.204 591.5 732.078 591.5Z" stroke="#000000" stroke-width="3.4421" stroke-linecap="round" stroke-miterlimit="8" fill-rule="evenodd"/><path d="M156.408 712 1040.3 712C1043.39 712 1046.34 712.627 1049.02 713.761L1055.42 718.074 1057.24 720.777C1058.37 723.457 1059 726.404 1059 729.498L1059 930.595C1059 942.969 1048.97 953 1036.59 953L152.704 953C149.61 953 146.662 952.373 143.982 951.239L137.584 946.926 135.761 944.223C134.627 941.543 134 938.596 134 935.502L134 734.405C134 722.031 144.032 712 156.408 712Z" fill="#262626" fill-rule="evenodd"/><path d="M1040.95 734.857 1044.12 739.554C1045.11 741.905 1045.66 744.49 1045.66 747.204L1045.66 923.597C1045.66 934.451 1036.87 943.25 1026.02 943.25L170.47 943.249C162.336 943.249 155.358 938.3 152.377 931.247L152.284 930.949 153.328 932.498C156.882 936.055 161.791 938.254 167.213 938.254L1022.77 938.254C1033.61 938.254 1042.4 929.456 1042.4 918.602L1042.4 742.209C1042.4 740.852 1042.26 739.527 1042 738.248ZM155.308 708 1035.26 708C1041.42 708 1047 710.499 1051.03 714.539L1054 718.942 1047.63 714.644C1044.96 713.515 1042.03 712.89 1038.95 712.89L158.995 712.89C146.675 712.89 136.688 722.886 136.688 735.216L136.688 935.616C136.688 938.698 137.312 941.635 138.441 944.306L140.255 947 139.534 946.513C135.497 942.473 133 936.891 133 930.726L133 730.327C133 717.996 142.988 708 155.308 708Z" fill="#404040" fill-rule="evenodd"/><path d="M166.957 722.614 1022.51 722.614C1030.64 722.614 1037.62 727.563 1040.6 734.617L1040.7 734.915 1039.65 733.365C1036.1 729.809 1031.19 727.609 1025.77 727.609L170.214 727.609C159.37 727.609 150.578 736.408 150.578 747.261L150.578 923.655C150.578 925.011 150.716 926.336 150.977 927.615L152.029 931.006 148.865 926.309C147.871 923.958 147.322 921.373 147.322 918.66L147.322 742.266C147.322 731.413 156.113 722.614 166.957 722.614ZM1053.74 719 1054.47 719.487C1058.5 723.527 1061 729.109 1061 735.274L1061 935.673C1061 948.004 1051.01 958 1038.69 958L158.74 958C152.58 958 147.003 955.501 142.966 951.461L140 947.057 146.37 951.356C149.038 952.485 151.973 953.11 155.053 953.11L1035 953.11C1047.32 953.11 1057.31 943.114 1057.31 930.784L1057.31 730.384C1057.31 727.302 1056.69 724.365 1055.56 721.694Z" fill="#0D0D0D" fill-rule="evenodd"/><rect x="424" y="813" width="53" height="39" fill="#D9D9D9"/><path d="M424 852 437.253 839 463.747 839 477 852Z" fill="#A6A6A6" fill-rule="evenodd"/><path d="M477 852 464 839.017 464 825.983 477 813Z" fill="#BFBFBF" fill-rule="evenodd"/><path d="M477 813 463.747 826 437.253 826 424 813Z" fill="#FFFFFF" fill-rule="evenodd"/><path d="M424 813 437 825.983 437 839.017 424 852Z" fill="#F2F2F2" fill-rule="evenodd"/><rect x="714" y="813" width="54" height="39" fill="#D9D9D9"/><path d="M714 852 727.253 839 754.747 839 768 852Z" fill="#A6A6A6" fill-rule="evenodd"/><path d="M768 852 755 839.017 755 825.983 768 813Z" fill="#BFBFBF" fill-rule="evenodd"/><path d="M768 813 754.747 826 727.253 826 714 813Z" fill="#FFFFFF" fill-rule="evenodd"/><path d="M714 813 728 826.982 728 838.018 714 852Z" fill="#F2F2F2" fill-rule="evenodd"/><path d="M244.8 42.3748 263.9 42.3748 283 42.3748 283 35.9725 283 29.5703 263.9 29.5703 244.8 29.5703 244.8 35.9725ZM87.6786 78.8683C85.7631 78.9952 83.8422 78.8628 82.6786 78.4212 79.122 77.0966 77.3657 75.5071 75.4338 71.9307 74.6434 70.4736 74.5995 69.0167 74.4678 47.0285 74.336 20.7132 74.336 20.6249 77.4974 17.0043 79.8246 14.3552 82.8542 13.1189 86.9376 13.1189 92.1188 13.1631 95.7632 15.2824 98.0024 19.5652L99.188 21.817 99.188 45.8804C99.188 69.3698 99.1441 69.9879 98.2659 71.9307 97.1682 74.3591 95.1045 76.5227 92.6457 77.7589 91.5042 78.355 89.5941 78.7413 87.6786 78.8683ZM208.603 78.8684C206.688 78.9953 204.767 78.8629 203.603 78.4213 199.344 76.8318 196.622 73.7852 195.744 69.5907 195.393 68.0012 195.305 60.1862 195.393 44.556L195.524 21.8171 196.71 19.6096C199.037 15.15 202.55 13.1191 207.819 13.1191 213.088 13.1191 216.6 15.15 218.927 19.6096L220.113 21.8171 220.113 45.8805C220.113 69.3699 220.069 69.9881 219.191 71.9308 218.093 74.3592 216.029 76.5228 213.571 77.7591 212.429 78.3551 210.519 78.7414 208.603 78.8684ZM21.7783 91.7985C27.3107 92.4167 32.2284 91.622 37.1461 89.2818 43.5128 86.2353 49.3525 78.8176 50.7575 72.018 51.8991 66.3664 51.1088 59.2136 48.7377 54.5334 47.4205 51.8843 48.4305 53.2088 31.1746 31.3973 23.6224 21.8602 17.4314 13.9568 17.4314 13.8685 17.4314 13.736 25.1592 13.6477 34.5555 13.6477L51.6797 13.6477 51.6797 7.24553 51.6797 0.843316 25.8179 0.843316 0 0.843316 0.219484 7.11312 0.439072 13.3828 18.3973 35.9008C28.2327 48.3078 36.7509 59.3461 37.2779 60.4058 38.639 63.2757 38.8146 67.5585 37.6729 70.6492 36.5314 73.6958 34.1604 76.5216 31.7454 77.7579 29.2427 79.0384 24.764 79.3033 21.91 78.376 17.5192 76.8749 14.0944 72.6361 13.2602 67.6469L12.9528 65.7482 6.63008 65.7482 0.307277 65.7482 0.307277 68.0884C0.351279 79.0384 10.7135 90.474 21.7783 91.7985ZM204.745 91.7997C209.97 92.3737 215.678 91.3581 219.893 89.1063 227.577 85.0002 231.88 78.907 233.022 70.4296 233.636 66.1468 233.636 25.6143 233.066 21.5522 232.495 17.5344 230.739 12.9424 228.763 10.3374 225.25 5.6572 219.235 1.90414 213.175 0.667832 209.004-0.215184 206.677-0.215184 202.55 0.623697 198.422 1.50682 196.666 2.21319 193.066 4.64167 187.928 8.04144 185.206 11.7061 183.362 17.6226 182.352 20.9341 182.352 20.9783 182.352 45.8805 182.352 68.3544 182.44 71.0919 183.142 73.6528 185.865 83.5431 194.295 90.6517 204.745 91.7997ZM148.937 91.8682C155.019 91.3323 160.255 88.8403 164.701 84.3368 168.257 80.7604 170.321 77.2281 171.507 72.8128 172.341 69.6779 172.341 62.6576 171.507 59.4344 170.146 54.092 170.321 54.401 149.597 28.2183L138.268 13.8685 155.436 13.7361 172.604 13.6477 172.604 7.24563 172.604 0.843422 146.918 0.843422 121.232 0.843422 121.232 7.02485 121.232 13.2063 139.234 35.8567C149.158 48.2637 157.676 59.3461 158.246 60.4499 159.651 63.2757 159.608 69.1481 158.203 71.7973 155.788 76.3892 152.67 78.5527 147.972 78.906 144.108 79.1709 141.21 78.1995 138.444 75.6827 136.161 73.6075 134.712 70.8701 134.185 67.6469L133.878 65.7483 127.555 65.7483 121.232 65.7483 121.232 67.7352C121.232 76.3451 127.335 85.5288 135.809 89.5909 138.444 90.8714 140.464 91.5336 142.571 91.7544 144.789 92.0083 146.91 92.0469 148.937 91.8682ZM88.7221 91.8996C93.7543 91.5871 98.2988 89.89 102.745 86.6778 107.047 83.6312 109.989 79.3042 111.57 73.6526 112.273 71.0476 112.36 68.7075 112.36 45.8804 112.36 18.4173 112.404 18.9912 109.506 13.2514 104.852 3.93509 92.7335-1.62824 81.9322 0.579456 77.6292 1.46247 75.2143 2.478 71.8333 4.72983 67.0474 8.04133 64.2373 11.8827 62.437 17.6225 61.4271 20.934 61.4271 20.9782 61.4271 46.1012 61.4271 73.9618 61.3393 73.167 64.369 79.1718 66.0814 82.6157 70.3405 86.7661 74.2482 88.7971 78.0243 90.7841 79.8246 91.358 83.5129 91.7553 85.313 91.9541 87.0447 92.0038 88.7221 91.8996Z" fill-rule="evenodd" transform="matrix(1 0 0 -1 1149 230)"/><path d="M190.253 41.5562C186 41.9285 181.994 40.4887 178.83 37.3113 173.335 31.7949 173.423 22.7037 179.005 17.2315 181.423 14.8925 183.489 13.8334 186.61 13.3479 191.401 12.5977 195.797 13.9216 199.357 17.2315 202.17 19.8352 203.313 22.4832 203.489 26.808 203.665 29.9855 203.533 30.6915 202.434 33.1188 200.983 36.3845 197.819 39.3414 194.566 40.5771 193.115 41.1066 191.67 41.4321 190.253 41.5562ZM225.874 42.4128 244.995 42.4128 264.116 42.4128 264.116 36.0137 264.116 29.6147 244.995 29.6147 225.874 29.6147 225.874 36.0137ZM128.396 78.8282C126.512 78.9717 124.632 78.9276 123.709 78.6186 120.325 77.5154 117.951 75.4412 116.5 72.3961 115.665 70.5867 115.577 69.6599 115.577 61.3632 115.577 52.7135 115.621 52.2281 116.632 50.198 117.907 47.6384 120.632 45.1671 123.006 44.5492 125.424 43.8873 129.643 43.8873 132.061 44.5933 133.38 44.9464 134.698 45.829 136.105 47.197 139.138 50.2862 139.753 52.6694 139.709 61.8046 139.709 68.2919 139.577 69.351 138.698 71.6459 137.555 74.5585 135.665 76.6768 133.116 77.9125 132.171 78.3539 130.281 78.6848 128.396 78.8282ZM65.9094 78.8394C61.2062 79.0601 58.7006 78.0892 56.1951 75.2648 53.4699 72.1314 53.294 71.293 53.294 61.584 53.294 53.3314 53.3379 52.6254 54.305 50.5511 55.4918 47.9474 56.2831 47.0207 58.4369 45.6526 61.5138 43.6667 68.0633 43.446 71.4039 45.1672 72.9424 46.0056 75.1842 48.3887 76.0633 50.154 77.2941 52.5812 77.8216 57.1709 77.5578 63.3052 77.4259 66.4826 77.1182 69.8366 76.8546 70.7193 75.9754 73.5436 73.6897 76.4564 71.4039 77.6478 69.8216 78.4422 68.4149 78.7512 65.9094 78.8394ZM483.209 78.8886C481.165 78.9713 479.077 78.7727 477.714 78.2652 475.077 77.3384 471.868 74.0285 470.857 71.2924 470.11 69.2624 470.022 67.2764 469.846 48.6089 469.626 21.7769 469.89 19.9675 474.417 15.9516 476.791 13.8775 478.945 13.1713 482.725 13.2154 487.472 13.2596 490.681 14.8925 493.011 18.4229 495.165 21.6887 495.297 23.145 495.165 47.2849 495.033 69.4389 495.033 69.5272 494.022 71.7337 492.791 74.3817 490.813 76.5882 488.439 77.8239 487.253 78.4418 485.253 78.8059 483.209 78.8886ZM362.008 78.9382C359.942 78.9934 357.821 78.7286 356.304 78.1328 353.447 76.9853 350.81 74.0726 349.711 70.9393 349.008 68.821 348.92 66.7027 348.92 46.1375 348.92 29.6323 349.052 23.145 349.447 21.8652 351.293 15.7751 357.096 12.2445 363.513 13.3037 364.7 13.4802 365.843 13.6567 366.107 13.6567 367.206 13.745 370.722 16.5694 371.909 18.3347 374.151 21.7328 374.283 23.3657 374.107 47.4614 373.975 69.3947 373.975 69.5272 372.964 71.7337 371.733 74.3815 369.755 76.5882 367.381 77.8239 366.085 78.5079 364.074 78.883 362.008 78.9382ZM189.608 79.0072C186.036 79.1396 182.599 77.857 179.928 75.3085 177.643 73.1902 176.72 70.9394 176.456 67.1 176.016 61.054 178.082 57.2146 183.093 54.7432 189.819 51.3892 198.17 54.1254 200.895 60.4803 201.95 62.9516 202.214 67.8502 201.423 70.5864 200.368 74.161 197.159 77.2061 193.203 78.3977 192.005 78.7617 190.799 78.9631 189.608 79.0072ZM25.9342 91.3727 25.9342 45.9174 25.9342 0.417917 19.4727 0.550257 12.9671 0.682703 12.8353 39.0329 12.7474 77.3389 11.2968 76.2798C10.5495 75.662 7.64842 73.5878 4.96715 71.6019L0 67.9831 0 74.9118 0 81.8845 6.50553 86.6066 12.9671 91.3286 19.4727 91.3286ZM65.0688 91.759C67.7007 91.792 70.327 91.5935 71.9754 91.1521 76.1952 90.0488 79.8435 87.8864 82.9204 84.7972 86.1732 81.5314 87.8435 78.4422 89.1623 73.4113 89.9535 70.2779 89.9975 68.4244 89.9975 46.1822 89.9975 26.8967 89.8655 21.7333 89.3381 19.2178 86.393 5.22818 72.371-3.02441 58.4369 1.03572 50.0851 3.4629 44.1511 9.37653 41.6456 17.7173L40.8544 20.3212 47.4039 20.3212C53.9094 20.3212 53.9973 20.3212 54.3929 19.2619 55.0082 17.585 57.4698 15.0695 59.4039 14.0544 60.5907 13.4367 62.305 13.0394 64.5029 12.9071 70.6567 12.554 74.7006 15.1136 76.5908 20.5418 77.1182 22.0864 77.4259 24.646 77.6017 28.9709L77.7776 35.2375 73.9094 34.1784C69.0304 32.8545 61.4698 32.1924 57.5138 32.7221 51.7556 33.5165 45.6896 37.8854 43.2281 42.9606 40.9423 47.6826 40.5467 50.154 40.5467 61.1427 40.5467 69.7484 40.6786 71.6901 41.3379 73.8967 43.9753 82.4141 50.1292 88.6807 58.1292 90.9756 59.7995 91.461 62.4369 91.7258 65.0688 91.759ZM417.582 91.7686C429.275 93.0484 439.516 87.5761 444.396 77.47 446.549 73.0127 447.209 69.4822 446.901 64.5394 446.637 59.8174 445.363 55.7572 443.209 52.4475 442.286 51.0793 435.077 41.7676 427.165 31.8381L412.791 13.7001 429.89 13.7001 447.033 13.7001 447.033 7.30098 447.033 0.901898 421.319 0.901898 395.604 0.901898 395.604 6.85964 395.604 12.8616 413.934 35.8982C424 48.5639 432.659 59.8174 433.143 60.9206 433.758 62.3329 434.066 63.8334 434.066 65.9958 434.066 68.6436 433.846 69.5704 432.615 72.0418 430.286 76.808 426.725 79.0145 421.582 79.0145 415.34 78.9263 410.286 74.6897 409.099 68.5113L408.571 65.7751 402.022 65.7751 395.472 65.7751 395.78 68.5554C396.483 74.822 399.384 80.7798 403.868 85.0606 407.912 88.9883 412.439 91.1949 417.582 91.7686ZM479.077 91.7694C484.747 92.4755 491.341 91.1516 496.044 88.4154 499.033 86.6501 503.429 82.3252 504.923 79.6774 505.67 78.3976 506.637 75.7938 507.121 73.8962 507.956 70.7188 508 68.9976 508 45.961 508 18.9966 508 18.8643 505.319 13.3037 502.769 8.09618 496.791 3.33003 490.198 1.21175 485.934-0.112289 479.165-0.112289 474.813 1.21175 465.978 3.99195 459.472 10.9647 457.67 19.6586 456.703 24.2042 456.747 68.1149 457.67 72.6164 458.637 77.2943 460.659 81.0013 464 84.3112 468.22 88.5036 473.406 91.0633 479.077 91.7694ZM302.857 91.7967C309.343 91.0459 315.458 88.0173 319.645 83.2512 322.239 80.2943 324.92 74.7338 325.579 70.8944 326.634 64.6718 325.184 56.9488 322.107 52.3591 321.359 51.2559 314.195 42.1206 306.239 32.0145L291.733 13.7 308.832 13.7 325.975 13.7 325.975 7.30098 325.975 0.901898 300.26 0.901898 274.546 0.901898 274.546 6.90375 274.546 12.9056 292.832 35.8981C302.898 48.5638 311.557 59.7733 312.041 60.8765 312.656 62.2887 312.964 63.8775 312.964 65.9958 313.008 68.6436 312.788 69.5262 311.557 72.0417 309.096 77.1169 305.228 79.3234 299.645 78.9263 296.26 78.6615 293.755 77.514 291.469 75.1751 289.447 73.0568 288.744 71.7328 288.041 68.5554L287.425 65.9958 281.008 65.8633 274.546 65.731 274.546 66.8342C274.546 68.9966 275.821 74.469 276.876 76.808 280.392 84.7958 288.129 90.7093 296.304 91.7685 298.491 92.0443 300.695 92.0471 302.857 91.7967ZM127.896 91.8195C130.599 91.7698 133.314 91.3948 135.446 90.7107 143.929 88.0186 149.731 81.5313 151.622 72.6168 152.545 68.1153 152.589 23.7633 151.622 19.2177 149.248 7.83182 139.49 0.0646926 127.665 0.0205792 121.907 0.0205792 116.852 1.78585 111.929 5.53697 108.061 8.44962 105.38 12.5981 103.753 18.1145L103.094 20.321 109.599 20.321C116.017 20.321 116.105 20.321 116.588 19.2618 117.38 17.4966 119.797 15.0253 121.687 14.0102 123.138 13.2159 124.237 13.0393 127.446 13.0393 132.501 13.0393 135.094 14.1868 137.204 17.3642 139.182 20.3652 139.577 21.9098 139.841 28.8384 140.149 35.8111 140.501 35.414 135.358 33.9576 131.138 32.8102 123.577 32.1923 119.797 32.7219 113.951 33.5163 108.017 37.7971 105.511 42.8722 103.182 47.7708 102.83 50.1098 102.83 61.3632 102.83 71.5577 102.874 71.7783 104.061 75.2205 105.599 79.5896 107.709 82.8111 110.918 85.6355 113.907 88.2834 116.896 89.9604 120.413 90.9755 122.501 91.5934 125.193 91.8691 127.896 91.8195ZM191.365 91.8942C196.901 91.4082 202.159 89.265 206.082 85.8559 209.115 83.2079 212.588 77.9122 213.687 74.2493 215.445 68.6005 215.313 61.76 213.335 57.4352 212.192 54.9197 210.214 52.0512 208.104 49.8446L206.17 47.8146 209.423 44.5488C214.566 39.4296 216.456 34.6192 216.412 26.9404 216.412 19.085 214.214 13.701 208.896 8.36107 197.906-2.67182 180.236-2.67182 169.291 8.36107 164.06 13.701 161.818 19.2615 161.818 27.1611 161.818 34.4869 163.884 39.6061 168.764 44.5047L171.972 47.6822 169.555 50.4625C164.588 56.023 162.698 62.0249 163.621 69.3066 164.148 73.6314 165.247 76.7648 167.489 80.1629 171.665 86.6502 178.478 90.9752 185.775 91.8136 187.643 92.0343 189.519 92.0564 191.365 91.8942ZM362.831 91.9393C374.081 91.3281 383.783 83.8368 386.283 73.1017 386.81 70.9393 386.942 65.7759 386.942 46.0933 386.942 23.3215 386.898 21.5563 386.063 18.3788 385.579 16.4811 384.656 13.9215 383.997 12.6859 381.403 7.87551 375.338 3.19759 369.14 1.21164 364.876-0.112289 358.107-0.112289 353.755 1.21164 344.92 3.99195 338.414 10.9647 336.612 19.6586 335.645 24.2041 335.689 68.1149 336.612 72.6164 338.722 82.6782 347.381 90.4455 357.931 91.7694 359.585 91.9735 361.223 92.0266 362.831 91.9393Z" fill-rule="evenodd" transform="matrix(1 0 0 -1 1149 437)"/><path d="M467.902 41.2031C458.15 41.2974 450.567 31.8202 454.219 22.0754 455.317 19.1929 456.943 17.1839 459.755 15.306 462.303 13.6463 464.587 13.0349 468.014 13.0349 477.196 13.0786 484.05 21.6824 481.897 30.4608 480.843 34.7409 476.493 39.2392 472.188 40.5495 470.732 40.9809 469.295 41.1896 467.902 41.2031ZM225.76 41.9731 244.871 41.9731 263.982 41.9731 263.982 35.6404 263.982 29.3077 244.871 29.3077 225.76 29.3077 225.76 35.6404ZM128.331 78.0111C126.448 78.153 124.569 78.1093 123.647 77.8036 120.264 76.7118 117.891 74.6591 116.442 71.6456 115.607 69.855 115.519 68.9378 115.519 60.7271 115.519 52.1671 115.563 51.6866 116.573 49.6776 117.847 47.1445 120.571 44.6988 122.944 44.0873 125.36 43.4323 129.578 43.4323 131.994 44.131 133.312 44.4804 134.63 45.3539 136.036 46.7077 139.068 49.7649 139.683 52.1234 139.639 61.1639 139.639 67.5839 139.507 68.6321 138.628 70.9031 137.486 73.7856 135.597 75.8819 133.049 77.1048 132.104 77.5416 130.215 77.8691 128.331 78.0111ZM65.8761 78.0221C61.1752 78.2405 58.6709 77.2797 56.1667 74.4845 53.4428 71.3837 53.267 70.5539 53.267 60.9456 53.267 52.7786 53.3109 52.0798 54.2776 50.0271 55.4638 47.4503 56.2546 46.5332 58.4073 45.1794 61.4827 43.214 68.0288 42.9956 71.3678 44.6989 72.9055 45.5287 75.1462 47.8871 76.0249 49.6341 77.255 52.0361 77.7822 56.5782 77.5186 62.6489 77.3868 65.7934 77.0792 69.1126 76.8157 69.9862 75.937 72.7812 73.6524 75.6638 71.3678 76.8429 69.7863 77.629 68.3803 77.9348 65.8761 78.0221ZM344.728 78.0495C342.784 78.1641 340.785 78.0221 339.423 77.5854 333.404 75.6201 330.9 69.4621 331.559 58.1068 331.91 52.3419 332.789 49.372 334.81 47.1446 336.831 44.961 338.149 44.2622 341.356 43.7381 347.419 42.8209 352.164 44.8299 354.492 49.4157 356.601 53.4774 357.04 64.7452 355.327 70.2046 354.448 72.9559 352.164 75.7074 349.703 76.974 348.561 77.5636 346.672 77.9348 344.728 78.0495ZM468.519 78.0654C466.663 78.1746 464.785 77.9999 463.401 77.4976 459.447 76.0564 456.372 73.0429 455.449 69.7237 454.658 66.7975 454.878 62.3864 455.976 59.8534 458.7 53.5643 467.091 50.9002 473.769 54.1758 478.734 56.5778 480.799 60.3774 480.447 66.3608 480.14 71.4269 478.031 74.6588 473.506 76.9299 472.21 77.5632 470.376 77.9562 468.519 78.0654ZM407.25 78.1517C403.504 78.4752 399.764 77.3125 397.457 74.9213 394.953 72.3882 394.118 69.6804 393.811 63.1293 393.327 52.866 395.173 47.2757 399.83 44.7863 401.851 43.7381 405.717 43.2577 408.616 43.7381 411.999 44.2622 414.46 45.7908 416.085 48.3675 417.974 51.3374 418.37 53.8705 418.194 62.0374 418.062 68.4138 417.931 69.5057 417.052 71.4273 415.69 74.3972 413.713 76.2751 410.945 77.3233 409.748 77.7709 408.499 78.044 407.25 78.1517ZM291.779 90.4255 298.281 90.4255 304.74 90.4255 304.74 45.4413 304.74 0.457136 298.15 0.457136 291.56 0.457136 291.472 38.4535 291.34 76.4934 285.321 72.0824C282.026 69.6804 279.214 67.715 279.082 67.715 278.951 67.715 278.819 70.7285 278.819 74.3971L278.819 81.0792 285.321 85.7523ZM25.9211 90.4255 25.9211 45.4414 25.9211 0.413584 19.4628 0.544552 12.9606 0.675625 12.8288 38.6282 12.741 76.5372 11.2911 75.489C10.5442 74.8776 7.64455 72.825 4.96463 70.8596L0 67.2783 0 74.1352 0 81.0356 6.50224 85.7087 12.9606 90.3818 19.4628 90.3818ZM344.975 90.7367C347.99 90.622 351 90.229 352.735 89.5957 360.116 86.9316 365.608 80.9483 367.716 73.1743 368.507 70.3355 368.551 68.1955 368.551 45.0046L368.551 19.8921 367.409 16.5293C365.915 12.1619 364.07 9.4104 360.731 6.30956 356.381 2.29153 350.406 0.0204703 344.3 0.0204703 332.262 0.0204703 322.596 7.48869 319.828 18.9313L319.565 20.1105 326.111 20.1105 332.657 20.1105 333.184 18.8003C333.931 17.0533 336.26 14.7386 338.281 13.7778 341.971 12.0308 348.034 12.5112 351.241 14.7823 354.932 17.4027 356.118 20.853 356.074 28.5833 356.074 31.6841 355.942 34.3045 355.854 34.3919 355.766 34.5229 353.921 34.1735 351.768 33.6495 346.892 32.4266 340.082 31.8588 336.304 32.3829 330.46 33.2127 324.881 36.9687 322.333 41.8165 319.741 46.6205 319.477 48.2802 319.257 58.7619 319.038 69.6804 319.477 72.9559 321.849 77.7601 324.485 83.1756 331.032 88.5039 337.182 90.2072 338.94 90.6876 341.96 90.8514 344.975 90.7367ZM407.298 90.7476C410.297 90.622 413.273 90.2072 414.987 89.552 422.456 86.7132 427.376 81.4723 429.793 73.8295 430.803 70.5539 430.803 70.5102 430.803 45.6597 430.803 23.3423 430.715 20.4599 430.056 18.0141 427.113 7.57611 418.897 0.85025 408.089 0.151439 396.183-0.634685 386.078 6.09118 382.695 17.0096 382.212 18.5382 381.817 19.8484 381.817 19.9358 381.817 20.0231 384.76 20.1105 388.363 20.1105L394.909 20.1105 395.436 18.8002C396.183 17.0533 398.512 14.7386 400.533 13.7778 404.223 12.0308 410.286 12.5112 413.449 14.7823 417.052 17.3154 418.282 20.9403 418.282 28.9326 418.282 31.9898 418.106 34.5229 417.931 34.5229 417.711 34.5229 415.997 34.1298 414.064 33.6494 409.363 32.4266 402.29 31.8587 398.6 32.3829 392.712 33.2127 387.177 36.9686 384.585 41.8164 381.992 46.6205 381.729 48.2802 381.509 58.7619 381.29 69.8551 381.729 72.9559 384.233 78.0658 386.957 83.525 393.108 88.4166 399.478 90.2072 401.279 90.7094 404.3 90.8732 407.298 90.7476ZM65.0359 90.8077C67.6664 90.8404 70.2915 90.644 71.939 90.2072 76.1567 89.1153 79.8032 86.9753 82.8785 83.9181 86.1296 80.6862 87.7991 77.629 89.1172 72.6502 89.908 69.5494 89.952 67.7151 89.952 45.7034 89.952 26.6179 89.8201 21.508 89.2929 19.0186 86.3493 5.17398 72.3344-2.99305 58.4073 1.02498 50.0598 3.427 44.1288 9.27932 41.6246 17.5337L40.8337 20.1105 47.3799 20.1105C53.8821 20.1105 53.97 20.1105 54.3654 19.0623 54.9804 17.4027 57.4407 14.9133 59.3739 13.9088 60.5601 13.2974 62.2735 12.9042 64.4703 12.7733 70.621 12.4238 74.6629 14.9569 76.5521 20.3288 77.0792 21.8574 77.3868 24.3905 77.5625 28.6706L77.7383 34.8722 73.872 33.8241C68.9955 32.5139 61.4388 31.8587 57.4848 32.3829 51.7294 33.169 45.6665 37.4927 43.2062 42.5152 40.9216 47.1883 40.5262 49.6341 40.5262 60.5088 40.5262 69.0253 40.6581 70.9469 41.317 73.1307 43.9531 81.5597 50.1039 87.7614 58.0998 90.0325 59.7693 90.5129 62.4054 90.7749 65.0359 90.8077ZM464.28 90.8182C470.387 91.517 476.933 90.1631 481.546 87.1932 484.665 85.2279 489.058 80.4237 490.64 77.2792 491.387 75.8381 492.31 73.4359 492.705 71.951 493.584 68.4135 493.584 62.0808 492.705 58.9362 491.87 56.0974 489.102 51.6863 486.554 49.0659L484.753 47.188 487.213 45.0042C490.113 42.4275 492.353 39.2392 493.716 35.6143 495.077 31.9894 495.429 24.6085 494.418 20.3722 490.333 3.16455 469.64-5.22077 453.516 3.77604 452.33 4.47485 449.913 6.3528 448.2 7.9687 442.796 13.0786 440.424 18.8872 440.467 26.8795 440.511 34.5661 442.269 38.8462 447.453 44.087L450.66 47.2753 448.068 50.0704C443.411 55.1366 441.522 60.4647 442.049 67.2343 442.972 79.6376 452.242 89.4643 464.28 90.8182ZM190.671 90.8674C204.417 89.5418 214.618 78.4356 213.888 64.2198 213.624 59.1973 212.438 55.3103 210.197 51.9038 209.275 50.5498 202.07 41.3346 194.161 31.508L179.795 13.558 196.885 13.558 214.02 13.558 214.02 7.22529 214.02 0.892548 188.318 0.892548 162.617 0.892548 162.617 6.78852 162.617 12.6845 180.937 35.4823C190.998 48.0167 199.609 59.1973 200.137 60.2891 200.752 61.643 201.059 63.1716 201.059 65.3116 201.059 67.932 200.84 68.8492 199.609 71.2949 197.281 76.0117 193.722 78.1954 188.582 78.1954 182.343 78.1081 177.291 73.9154 176.105 67.8011L175.577 65.0932 169.075 65.0932 162.529 65.0932 162.837 67.8447C163.54 74.09 166.395 79.9424 170.877 84.1788 174.918 88.0657 179.444 90.2495 184.584 90.8172 186.671 91.0465 188.707 91.0567 190.671 90.8674ZM127.832 90.8677C130.533 90.8185 133.246 90.4473 135.377 89.7703 143.856 87.1061 149.656 80.6861 151.545 71.864 152.467 67.4092 152.511 23.517 151.545 19.0185 149.172 7.75063 139.419 0.064022 127.601 0.0203659 121.845 0.0203659 116.793 1.76734 111.872 5.47957 108.006 8.36202 105.326 12.4675 103.701 17.9267L103.042 20.1103 109.544 20.1103C115.958 20.1103 116.046 20.1103 116.529 19.0622 117.32 17.3152 119.737 14.8695 121.626 13.865 123.076 13.0789 124.174 12.9041 127.381 12.9041 132.434 12.9041 135.026 14.0397 137.134 17.1842 139.111 20.1541 139.507 21.6827 139.771 28.5394 140.078 35.4399 140.429 35.0469 135.289 33.6056 131.072 32.4701 123.515 31.8586 119.737 32.3827 113.893 33.1688 107.962 37.4052 105.458 42.4278 103.13 47.2756 102.778 49.5903 102.778 60.7271 102.778 70.8158 102.822 71.0342 104.008 74.4408 105.546 78.7645 107.655 81.9526 110.862 84.7478 113.849 87.3682 116.837 89.0279 120.352 90.0324 122.439 90.6439 125.13 90.9168 127.832 90.8677Z" fill-rule="evenodd" transform="matrix(1 0 0 -1 1149 643)"/><path d="M223.968 42.4066 243.076 42.4066 262.184 42.4066 262.184 36.0123 262.184 29.618 243.076 29.618 223.968 29.618 223.968 36.0123ZM405.332 78.8007C403.421 78.9495 401.456 78.8724 400.204 78.4975 395.679 77.1746 393.088 73.5144 392.253 67.2965 391.638 62.5779 391.99 55.037 393 51.5973 393.922 48.4664 396.953 45.3354 399.765 44.5857 402.225 43.9241 406.441 43.8801 408.814 44.5416 411.142 45.1589 413.953 47.6284 415.051 50.0098 417.028 54.2432 417.379 65.5766 415.754 70.9126 414.875 73.6907 412.591 76.469 410.131 77.7478 409.099 78.277 407.243 78.6519 405.332 78.8007ZM65.8648 78.8062C61.1647 79.0267 58.6608 78.0565 56.157 75.2342 53.4336 72.1032 53.2579 71.2653 53.2579 61.5636 53.2579 53.3171 53.3018 52.6116 54.2682 50.5389 55.4542 47.9371 56.2449 47.0111 58.3973 45.644 61.4721 43.6596 68.0171 43.439 71.3555 45.1589 72.893 45.9968 75.1333 48.3781 76.0118 50.142 77.2417 52.5674 77.7688 57.1537 77.5052 63.2835 77.3735 66.4585 77.066 69.81 76.8025 70.6921 75.924 73.5143 73.6397 76.4249 71.3555 77.6155 69.7743 78.4092 68.3686 78.718 65.8648 78.8062ZM343.058 78.8227C341.147 78.9606 339.192 78.8724 338.006 78.4975 331.725 76.6012 329.133 70.2951 329.792 58.6531 330.143 52.5674 330.978 49.8775 333.174 47.452 336.073 44.321 341.476 43.1745 346.572 44.5856 349.515 45.4235 352.458 48.4222 353.468 51.6414 354.479 54.7724 354.874 62.7984 354.259 67.1201 353.468 72.8529 351.667 75.8074 347.846 77.7919 346.835 78.3211 344.968 78.6849 343.058 78.8227ZM296.477 91.3301 302.934 91.3301 302.934 45.9085 302.934 0.486891 296.345 0.486891 289.756 0.486891 289.668 38.8528 289.536 77.1745 283.299 72.5882 277.017 68.0019 277.017 74.9254 277.017 81.893 283.518 86.6115 289.976 91.2861ZM25.9167 91.3301 25.9167 45.9086 25.9167 0.442916 19.4595 0.575158 12.9583 0.707505 12.8266 39.0292 12.7388 77.3068 11.2891 76.2484C10.5424 75.6311 7.64323 73.5585 4.96378 71.574L0 67.9579 0 74.8814 0 81.849 6.50113 86.5675 12.9583 91.2861 19.4595 91.2861ZM405.404 91.6444C408.418 91.5286 411.427 91.1318 413.162 90.4923 420.454 87.8464 426.033 81.7608 428.185 74.1317 428.888 71.4858 428.976 69.1486 428.976 45.6881L428.976 20.1109 427.834 16.7153C426.34 12.3055 424.495 9.52722 421.157 6.39623 413.997-0.262691 402.664-1.89431 393.483 2.47147 387.07 5.55838 381.974 11.9085 380.261 19.1407L379.998 20.3314 386.543 20.3314 393.088 20.3314 393.571 19.0966C394.318 17.3767 396.822 14.8632 398.754 13.9371 399.677 13.4961 401.697 13.0551 403.279 12.9228 410.878 12.3936 415.446 16.3625 416.413 24.3443 416.808 27.4753 416.545 34.8839 416.017 34.8839 415.842 34.8839 414.173 34.4871 412.24 33.9579 407.671 32.7672 400.467 32.194 396.734 32.7231 390.891 33.561 385.313 37.3535 382.765 42.2485 380.217 47.0551 379.91 48.775 379.69 59.3587 379.471 70.3834 379.91 73.6466 382.282 78.5416 384.918 84.0098 391.462 89.3899 397.612 91.1097 399.369 91.5948 402.389 91.7602 405.404 91.6444ZM65.0247 91.7161C67.6548 91.7491 70.2794 91.5508 71.9266 91.1097 76.1435 90.0072 79.7894 87.8464 82.8642 84.7595 86.1148 81.4961 87.784 78.4092 89.1019 73.382 89.8925 70.251 89.9365 68.3989 89.9365 46.1732 89.9365 26.9021 89.8046 21.7425 89.2775 19.2289 86.3345 5.2496 72.322-2.99685 58.3973 1.06026 50.0512 3.48564 44.1212 9.39487 41.6174 17.7295L40.8267 20.3314 47.3717 20.3314C53.8729 20.3314 53.9607 20.3314 54.356 19.2729 54.971 17.5972 57.4308 15.0836 59.3636 14.0693 60.5497 13.452 62.2628 13.055 64.4592 12.9228 70.6089 12.5699 74.65 15.1277 76.5389 20.5518 77.066 22.0953 77.3735 24.653 77.5491 28.9747L77.7249 35.2367 73.8593 34.1783C68.9836 32.8554 61.4282 32.1938 57.4749 32.7231 51.7205 33.5169 45.6586 37.8826 43.1988 42.954 40.9145 47.6725 40.5192 50.142 40.5192 61.1226 40.5192 69.7219 40.651 71.6622 41.3099 73.8671 43.9455 82.3782 50.0952 88.6402 58.0898 90.9333 59.759 91.4184 62.3946 91.683 65.0247 91.7161ZM461.35 91.7255C471.672 93.0484 481.468 88.4623 487.134 79.6866 490.429 74.5271 491.703 67.2066 490.385 60.9006 489.023 54.374 488.716 53.9771 457.967 15.3908L456.649 13.715 473.825 13.715 491 13.715 491 7.32076 491 0.926432 465.303 0.926432 439.606 0.926432 439.606 7.01199 439.606 13.0536 457.879 35.9848C467.939 48.597 476.416 59.4012 476.724 60.0186 477.778 62.0471 478.261 66.016 477.822 68.5297 476.943 72.9836 473.342 77.2171 469.3 78.54 467.06 79.2456 462.228 78.8929 460.251 77.8786 456.166 75.8059 453.619 72.3662 452.872 67.9563L452.52 65.972 446.063 65.8396 439.606 65.7074 439.606 67.1626C439.65 69.8967 440.924 74.7917 442.417 77.8786 446.063 85.2871 453.531 90.7554 461.35 91.7255ZM342.223 91.7271C348.065 91.7712 352.326 90.4923 356.763 87.3613 361.902 83.7452 365.065 78.718 366.295 72.1473 367.261 67.0759 367.261 24.4325 366.295 19.5375 365.241 14.4663 363.396 10.9383 359.662 7.23408 353.6 1.06026 344.903-1.32105 336.249 0.707399 330.319 2.11861 323.95 6.7049 321.094 11.6439 320.128 13.3196 317.756 19.3171 317.756 20.155 317.756 20.2431 320.699 20.3313 324.301 20.3313L330.846 20.3313 331.373 19.0084C332.208 16.9357 335.854 13.893 338.138 13.3196 340.773 12.6582 343.98 12.7023 346.396 13.452 352.238 15.2159 354.61 20.3313 354.654 31.0473 354.654 33.9578 354.522 34.8839 354.083 34.8839 353.732 34.8839 351.931 34.487 349.998 33.9578 345.43 32.7672 338.226 32.1938 334.492 32.723 328.606 33.561 322.808 37.618 320.26 42.6894 317.888 47.3638 317.536 49.657 317.536 61.1226 317.536 70.8243 317.624 71.9708 318.503 74.7931 320.875 82.4223 327.727 88.9929 335.371 91.0656 336.688 91.4184 339.763 91.7271 342.223 91.7271ZM188.703 91.8091C202.063 90.619 212.191 80.0173 212.229 65.972 212.229 61.8267 211.395 58.2106 209.594 54.5064 208.803 52.9187 202.39 44.4077 193.341 33.0302 185.127 22.667 178.406 14.1119 178.406 13.9797 178.406 13.8033 186.005 13.7151 195.318 13.7151L212.229 13.7151 212.229 7.32076 212.229 0.926432 186.532 0.926432 160.835 0.926432 160.835 6.87974 160.835 12.8331 179.197 35.8967C189.256 48.553 197.909 59.7981 198.393 60.9006 199.71 63.8112 199.579 68.7943 198.173 71.7048 195.889 76.3792 191.848 78.981 186.928 78.981 180.559 78.981 175.243 74.2184 174.189 67.6036L173.882 65.7074 167.468 65.8396 161.055 65.972 161.187 68.3973C161.846 79.9071 171.598 90.4467 182.799 91.7256 184.819 91.9572 186.794 91.9792 188.703 91.8091ZM126.543 91.8994C132.442 91.393 137.458 88.9702 141.905 84.5383 148.714 77.7031 151.218 69.7212 149.329 60.681 148.275 55.6537 146.693 53.0519 142.608 49.3476L140.763 47.6718 143.97 44.4968C149.241 39.205 151.13 33.869 150.735 25.6226 150.383 18.1258 148.406 13.319 143.619 8.33588 131.978-3.74717 111.64-2.15964 102.372 11.5551 100.922 13.6719 98.1547 21.0804 98.1547 22.7562 98.1547 23.3294 99.1649 23.4176 104.48 23.4176L110.849 23.4176 112.255 20.7717C114.056 17.3761 117.219 14.3774 119.723 13.7159 124.071 12.5252 128.64 13.1868 132.154 15.524 139.753 20.5954 139.973 33.8249 132.505 39.0286 129.913 40.8366 127.585 41.498 122.929 41.8068L118.8 42.0714 118.8 47.4514 118.8 52.8314 122.622 53.1402C127.585 53.4929 129.211 53.978 131.802 55.742 135.756 58.3879 137.513 62.93 136.678 68.3983 135.448 76.777 125.477 81.5397 117.922 77.3943 115.198 75.8951 113.309 73.646 112.211 70.515L111.42 68.1778 104.919 68.0454 98.4622 67.9132 98.7696 69.8094C100.483 80.9223 109.927 90.5357 120.338 91.7705 122.512 92.0241 124.576 92.0682 126.543 91.8994Z" fill-rule="evenodd" transform="matrix(1 0 0 -1 1149 879)"/></g></svg>